<svg width="1440" height="846" viewBox="0 0 1440 846" fill="none" xmlns="http://www.w3.org/2000/svg">
<path fill-rule="evenodd" clip-rule="evenodd" d="M8.11073 5.31414V9.8319H3.58793H-0.934872V18.8674V27.9029H4.38123H9.69643L11.624 36.2608C12.6833 40.8571 13.548 44.9231 13.5444 45.2963C13.5408 45.6694 10.2817 45.9739 6.30161 45.9739H-0.934872V54.8802V63.7865L8.15144 64.4118C13.1491 64.7552 18.0139 65.3235 18.9627 65.6741C21.3128 66.5424 31.4086 86.9644 29.1463 86.2732C21.5887 83.9656 15.3879 82.8307 7.88459 82.3816L-0.934872 81.8531V90.8859V99.9187L6.52775 100.476C35.9757 102.677 63.4635 123.264 74.2468 151.193C93.8884 202.07 60.0976 256.012 5.17091 261.461L-0.934872 262.066V271.16V280.254L6.37036 279.645C68.2713 274.488 110.302 216.311 95.2814 156.579C93.3755 149.002 93.0897 149.065 104.352 154.606C116.036 160.356 115.32 158.588 115.237 181.507C115.01 244.058 69.8579 292.081 6.07547 297.611L-0.934872 298.219V307.307V316.395L7.32558 315.772C80.0767 310.286 133.843 252.97 133.913 180.829C133.92 172.753 134.155 166.146 134.434 166.146C134.712 166.146 137.238 166.716 140.046 167.412C142.854 168.109 146.736 168.951 148.673 169.284L152.195 169.891L151.684 185.412C149.085 264.479 86.7894 329.251 9.69372 333.046L-0.934872 333.569V343.011V352.452L3.58884 352.139L8.11164 351.826V360.862V369.897L3.55627 369.582L-1 369.266L-0.741296 378.617L-0.482591 387.968L4.7123 388.239C9.21249 388.473 9.96961 388.776 10.3658 390.498C12.9076 401.541 13.5137 404.386 13.5245 405.333C13.5345 406.154 11.6973 406.292 6.30161 405.876L-0.934872 405.32V414.411V423.504L6.07547 424.14C21.0839 425.501 19.6421 424.603 25.4313 436.193C29.9803 445.302 30.3276 446.374 28.5972 445.985C16.8832 443.348 12.6245 442.599 6.37036 442.078L-0.934872 441.469V450.49V459.51L7.79323 460.582C61.1053 467.126 93.485 520.699 74.2468 570.53C63.4635 598.459 35.9757 619.046 6.52775 621.247L-0.934872 621.804V630.837V639.87L7.88459 639.344C67.4553 635.793 110.2 575.343 95.1105 515.99C94.2032 512.418 93.5383 509.496 93.6342 509.496C95.1883 509.496 113.948 519.906 114.422 521.031C115.954 524.666 115.978 551.364 114.457 560.095C105.218 613.149 60.8394 653.686 8.01937 657.32L-0.934872 657.936V666.981V676.026L9.24144 675.439C79.0817 671.414 133.876 612.144 133.892 540.609L133.895 526.095L142.689 528.06L151.484 530.024L151.372 545.285C150.815 622.014 90.1861 686.087 11.5028 693.099L-0.934872 694.207V703.049V711.891H3.58793H8.11073V720.927V729.962H3.58793H-0.934872V738.998V748.033H3.98684C6.69419 748.033 9.16998 748.456 9.49019 748.973C10.099 749.957 13.5381 763.792 13.5381 765.258C13.5381 765.724 10.2817 766.104 6.30161 766.104H-0.934872V775.01V783.917L8.15144 784.542C13.1491 784.885 18.0139 785.454 18.9627 785.804C21.3128 786.673 31.4086 807.095 29.1463 806.403C21.5887 804.096 15.3879 802.961 7.88459 802.512L-0.934872 801.983V811.016V820.049L6.52775 820.606C35.945 822.805 63.4744 843.423 74.2468 871.324C93.8938 922.213 60.1112 976.141 5.17091 981.591L-0.934872 982.197V991.29V1000.38L6.37036 999.775C68.2658 994.62 110.305 936.456 95.2914 876.752C93.3737 869.127 93.0834 869.191 104.352 874.736C116.036 880.487 115.32 878.718 115.237 901.637C115.01 964.188 69.8579 1012.21 6.07547 1017.74L-0.934872 1018.35V1027.44V1036.53L7.32558 1035.9C80.0767 1030.42 133.843 973.101 133.913 900.959C133.92 892.884 134.155 886.276 134.434 886.276C134.712 886.276 137.238 886.847 140.046 887.542C142.854 888.239 146.736 889.081 148.673 889.414L152.195 890.021L151.684 905.542C149.088 984.502 87.627 1048.54 9.91986 1053.25L-0.482591 1053.89L-0.741296 1063.24L-1 1072.59L3.55627 1072.27L8.11164 1071.96V1078.51L8.11073 1085.06H17.1202H26.1287L26.3919 1077.63L26.6542 1070.21L32.9862 1068.77C36.4687 1067.97 40.437 1067.03 41.8056 1066.68L44.2932 1066.05V1075.55V1085.06H53.2004H62.1085L62.682 1074.44C63.4943 1059.41 62.8955 1060.42 74.358 1054.68C86.0224 1048.84 85.3286 1048.68 83.0925 1056.61C81.3928 1062.63 79.6995 1078.72 80.3128 1083.02C80.5896 1084.98 80.9577 1085.06 89.5845 1085.06H98.5668V1078.9C98.5668 1021.04 163.004 982.441 215.516 1008.84C241.857 1022.08 257.787 1046.55 260.163 1077.43L260.75 1085.06H269.8H278.851L278.291 1075.34C274.777 1014.33 214.818 969.753 156.161 984.555C151.769 985.664 148.082 986.571 147.968 986.571C147.855 986.571 150.058 982.008 152.864 976.431C158.983 964.269 158.214 964.625 178.62 964.527C241.254 964.225 290.192 1009.67 295.984 1073.52L297.031 1085.06H306.032H315.034L314.483 1074.89C310.462 1000.64 249.435 944.013 175.638 946.055C164.902 946.352 164.529 946.299 164.934 944.556C165.164 943.562 166.033 939.617 166.867 935.789L168.38 928.83L172.433 928.223C178.103 927.374 194.85 928.573 206.662 930.673C275.531 942.924 328.901 1003.34 331.674 1072.18L332.193 1085.06H341.566H350.939V1078.73V1072.41H359.533H368.126V1078.73V1085.06H377.624H387.122V1077.56V1070.07L394.965 1068.44C399.279 1067.54 403.307 1066.62 403.917 1066.39C404.766 1066.06 404.911 1068.19 404.536 1075.51L404.049 1085.06H413.108H422.166L422.831 1076.25C423.196 1071.4 423.757 1065.7 424.078 1063.58L424.661 1059.71L434.586 1054.82C446.343 1049.02 445.478 1048.69 443.212 1058.04C442.2 1062.22 441.112 1070 440.794 1075.34L440.214 1085.06H449.265H458.315L458.902 1077.43C463.282 1020.51 517.699 985.585 570.074 1006.09C599.041 1017.43 620.498 1048.17 620.498 1078.34V1085.06H629.544H638.59L638.574 1076.7C638.477 1025.13 594.071 982.745 539.992 982.598C524.605 982.556 522.192 982.85 510.365 986.205C508.507 986.732 508.762 985.883 513.285 976.511C519.035 964.602 517.829 965.291 534.565 964.341C598.78 960.696 656.624 1014.78 656.675 1078.51L656.681 1085.06H665.866H675.05L674.492 1072.63C671.339 1002.44 612.268 946.629 540.897 946.411L525.067 946.363L526.853 937.578L528.638 928.793L532.732 928.172C538.278 927.33 561.181 929.248 571.2 931.393C641.135 946.37 692.863 1009.44 692.863 1079.73V1085.06H701.909H710.954V1078.51V1071.96H720H729.046V1078.51V1085.06H738.055H747.064L747.327 1077.63L747.589 1070.21L753.921 1068.77C757.404 1067.97 761.372 1067.03 762.74 1066.68L765.228 1066.05V1075.55V1085.06H774.135H783.043L783.617 1074.44C784.429 1059.41 783.83 1060.42 795.293 1054.68C806.957 1048.84 806.263 1048.68 804.027 1056.61C802.328 1062.63 800.634 1078.72 801.248 1083.02C801.524 1084.98 801.893 1085.06 810.519 1085.06H819.502V1078.9C819.502 1034.42 860.232 997.228 905.435 1000.43C946.966 1003.38 977.815 1034.78 981.098 1077.43L981.685 1085.06H990.735H999.786L999.226 1075.34C995.712 1014.33 935.753 969.753 877.096 984.555C872.703 985.664 869.033 986.571 868.938 986.571C868.844 986.571 871.013 981.941 873.758 976.283L878.75 965.996L887.764 964.863C952.54 956.726 1010.77 1005.71 1016.92 1073.52L1017.97 1085.06H1026.97H1035.97L1035.42 1074.89C1031.4 1000.64 970.37 944.013 896.573 946.055C885.837 946.352 885.464 946.299 885.868 944.556C886.099 943.562 886.968 939.617 887.801 935.789L889.315 928.83L893.368 928.223C899.038 927.374 915.785 928.573 927.597 930.673C996.266 942.888 1049.86 1003.36 1052.61 1071.73L1053.14 1085.06H1062.51H1071.87V1078.73V1072.41H1080.47H1089.06V1078.73V1085.06H1098.56H1108.06V1077.56V1070.07L1115.9 1068.44C1120.21 1067.54 1124.24 1066.62 1124.85 1066.39C1125.7 1066.06 1125.85 1068.19 1125.47 1075.51L1124.98 1085.06H1134.04H1143.1L1143.77 1076.25C1144.13 1071.4 1144.69 1065.7 1145.01 1063.58L1145.6 1059.71L1155.52 1054.82C1167.28 1049.02 1166.41 1048.69 1164.15 1058.04C1163.14 1062.22 1162.05 1070 1161.73 1075.34L1161.15 1085.06H1170.2H1179.25L1179.84 1077.43C1184.22 1020.51 1238.63 985.585 1291.01 1006.09C1320.22 1017.52 1341.43 1048.15 1341.43 1078.9V1085.06H1350.48H1359.52L1359.51 1076.7C1359.41 1025.13 1315.01 982.745 1260.93 982.598C1245.54 982.556 1243.13 982.85 1231.3 986.205C1229.44 986.732 1229.7 985.883 1234.22 976.511C1239.97 964.602 1238.76 965.291 1255.5 964.341C1319.6 960.702 1377.56 1014.89 1377.61 1078.51L1377.62 1085.06H1386.8H1395.98L1395.43 1072.63C1392.27 1002.44 1333.2 946.629 1261.83 946.411L1246 946.363L1247.79 937.578L1249.57 928.793L1253.67 928.172C1259.21 927.33 1282.12 929.248 1292.13 931.393C1362.07 946.37 1413.8 1009.44 1413.8 1079.73V1085.06H1422.84H1431.89L1431.89 1078.51V1071.96L1436.41 1072.27L1440.93 1072.58V1063.01V1053.43H1435.52C1430.66 1053.43 1430.07 1053.23 1429.65 1051.4C1427.15 1040.59 1426.49 1037.47 1426.48 1036.52C1426.47 1035.7 1428.3 1035.56 1433.7 1035.98L1440.93 1036.53V1027.44V1018.35L1433.92 1017.71C1418.92 1016.35 1420.36 1017.25 1414.57 1005.66C1410.02 996.551 1409.67 995.479 1411.4 995.868C1423.12 998.506 1427.38 999.254 1433.63 999.775L1440.93 1000.38V991.29V982.197L1434.83 981.591C1379.86 976.137 1346.1 922.239 1365.75 871.324C1376.54 843.394 1404.02 822.807 1433.47 820.606L1440.93 820.049V811.016V801.983L1432.12 802.509C1372.57 806.058 1329.81 866.54 1344.89 925.864C1345.8 929.435 1346.46 932.358 1346.37 932.358C1344.81 932.358 1326.05 921.948 1325.58 920.822C1324.05 917.187 1324.02 890.49 1325.54 881.759C1334.78 828.704 1379.16 788.167 1431.98 784.533L1440.93 783.917V774.872V765.828L1430.76 766.414C1360.93 770.439 1306.11 829.726 1306.09 901.241L1306.09 915.755L1297.3 913.791L1288.52 911.829L1288.63 896.568C1289.19 819.755 1349.73 755.775 1428.5 748.754L1440.93 747.646V738.804V729.962H1436.41H1431.89V720.927V711.891H1436.41H1440.93V702.856V693.82H1436.01C1429.75 693.82 1430.16 694.502 1426.87 678.686L1426.26 675.749H1433.6H1440.93V666.843V657.936L1431.85 657.311C1426.85 656.968 1421.99 656.4 1421.04 656.049C1418.69 655.181 1408.59 634.759 1410.85 635.45C1418.41 637.757 1424.61 638.892 1432.12 639.341L1440.93 639.87V630.837V621.804L1433.47 621.247C1404.06 619.049 1376.53 598.43 1365.75 570.53C1346.1 519.615 1379.86 465.716 1434.83 460.262L1440.93 459.657V450.563V441.469L1433.63 442.078C1371.63 447.243 1329.77 505.301 1344.77 565.322C1346.62 572.698 1346.88 572.646 1335.65 567.117C1323.96 561.367 1324.68 563.135 1324.76 540.216C1324.99 477.665 1370.14 429.642 1433.92 424.112L1440.93 423.504V414.416V405.328L1432.67 405.951C1359.92 411.437 1306.16 468.753 1306.09 540.894C1306.08 548.97 1305.85 555.577 1305.57 555.577C1305.29 555.577 1302.76 555.007 1299.95 554.311C1297.15 553.614 1293.26 552.772 1291.33 552.439L1287.81 551.832L1288.32 536.311C1290.91 457.351 1352.37 393.312 1430.08 388.599L1440.48 387.968L1440.74 378.617L1441 369.266L1436.44 369.582L1431.89 369.897V360.862V351.826L1436.41 352.139L1440.93 352.452V342.878V333.303H1435.52C1430.65 333.303 1430.07 333.102 1429.66 331.27C1429.41 330.152 1428.59 326.468 1427.83 323.082C1427.08 319.697 1426.46 316.559 1426.46 316.108C1426.46 315.64 1429.56 315.528 1433.7 315.847L1440.93 316.403V307.312V298.219L1433.92 297.583C1418.9 296.221 1420.37 297.14 1414.49 285.391C1411.63 279.689 1409.29 274.933 1409.29 274.821C1409.28 274.709 1410.39 275.039 1411.74 275.554C1415.88 277.126 1425.93 279.003 1433.63 279.645L1440.93 280.254V271.16V262.066L1434.83 261.461C1373.34 255.36 1340.35 189.489 1372.73 137.472C1385.62 116.782 1409.44 102.272 1433.47 100.476L1440.93 99.9187V90.7693V81.6208L1432.4 82.2434C1371.98 86.6572 1329.76 146.236 1344.89 205.734C1345.8 209.305 1346.46 212.227 1346.37 212.227C1344.81 212.227 1326.05 201.818 1325.58 200.692C1324.05 197.057 1324.02 170.359 1325.54 161.628C1334.79 108.555 1379.14 68.0378 1431.98 64.4028L1440.93 63.7865V54.7447V45.7029L1431.21 46.2251C1361.25 49.983 1306.11 109.423 1306.09 181.111L1306.09 195.625L1297.3 193.661L1288.52 191.699L1288.63 176.438C1289.18 99.6955 1349.8 35.6373 1428.5 28.624L1440.93 27.5162V18.674V9.8319H1436.41H1431.89V5.31414V0.796387H1422.84H1413.8V6.10656V11.4158L1405.43 13.3413C1400.83 14.3993 1396.76 15.2631 1396.39 15.2595C1396.01 15.2559 1395.71 12.0004 1395.71 8.0248V0.796387H1386.79H1377.87L1377.25 9.87256C1376.9 14.8647 1376.34 19.724 1375.98 20.6718C1375.12 23.0192 1354.67 33.1038 1355.36 30.844C1357.67 23.2948 1358.81 17.101 1359.26 9.60601L1359.79 0.796387H1350.74H1341.7L1341.14 8.25068C1337.05 62.8496 1276.9 97.4393 1226.81 73.9931C1200.06 61.4707 1182.97 36.9917 1179.98 6.89536L1179.37 0.796387H1170.27H1161.17L1161.77 8.09347C1166.95 70.0653 1225.03 111.846 1285.16 96.8511C1292.54 95.0097 1292.49 94.7431 1286.95 105.966C1281.2 117.636 1282.97 116.922 1260.02 116.839C1197.16 116.611 1149.61 71.8381 1143.75 7.34713L1143.15 0.796387H1134.07H1124.98L1125.61 9.04762C1131.1 81.7175 1188.48 135.424 1260.7 135.493C1268.79 135.5 1275.4 135.794 1275.39 136.144C1275.39 136.494 1275.01 138.204 1274.56 139.943C1274.1 141.683 1273.25 145.501 1272.66 148.429L1271.6 153.753L1256.09 153.244C1177.02 150.65 1112.11 88.355 1108.31 11.4131L1107.79 0.796387H1098.34H1088.89L1089.2 5.31505L1089.51 9.8328H1080.47H1071.42L1071.74 5.31505L1072.05 0.796387H1062.46H1052.88V6.20053C1052.88 11.068 1052.68 11.6498 1050.84 12.0582C1049.72 12.3076 1046.04 13.1281 1042.65 13.8825C1039.26 14.6361 1036.11 15.2532 1035.66 15.2532C1035.2 15.2532 1035.08 12.1549 1035.4 8.0248L1035.96 0.796387H1026.86H1017.76L1017.12 7.79891C1015.76 22.7906 1016.66 21.3504 1005.05 27.1331C995.933 31.6771 994.859 32.024 995.249 30.2955C997.889 18.5945 998.638 14.3406 999.16 8.09347L999.77 0.796387H990.665H981.562L980.956 6.89536C975.5 61.7608 921.498 95.5138 870.565 75.8941C842.604 65.1229 821.995 37.6658 819.791 8.25068L819.233 0.796387H810.073H800.915L801.538 9.31868C805.958 69.6858 865.586 111.848 925.166 96.7345C928.742 95.8283 931.667 95.1642 931.667 95.2599C931.667 96.8122 921.246 115.551 920.119 116.024C916.48 117.555 889.753 117.579 881.012 116.06C827.86 106.824 787.318 62.5396 783.677 9.74064L783.061 0.796387H774.009H764.957L765.48 10.5096C769.228 80.1318 828.839 135.493 900.064 135.498L915.045 135.499L913.08 144.272L911.116 153.045L895.838 152.934C818.939 152.376 754.887 91.9014 747.859 13.2202L746.75 0.796387H737.898H729.046V5.31414V9.8319H720H710.954V5.31414V0.796387H701.909H692.863V6.10656V11.4158L684.496 13.3413C679.895 14.3993 675.824 15.2631 675.45 15.2595C675.077 15.2559 674.772 12.0004 674.772 8.0248V0.796387H665.856H656.939L656.314 9.87256C655.97 14.8647 655.401 19.724 655.05 20.6718C654.181 23.0192 633.736 33.1038 634.428 30.844C636.738 23.2948 637.874 17.101 638.324 9.60601L638.853 0.796387H629.81H620.767L620.209 8.25068C618.005 37.6658 597.396 65.1229 569.435 75.8941C518.502 95.5138 464.5 61.7608 459.044 6.89536L458.438 0.796387H449.335H440.23L440.84 8.09347C446.01 70.0238 504.134 111.836 564.222 96.8511C571.606 95.0097 571.553 94.7431 566.018 105.966C560.262 117.636 562.032 116.922 539.088 116.839C476.467 116.612 428.39 71.5101 422.854 7.79891L422.245 0.796387H413.147H404.049L404.672 9.04762C410.164 81.7175 467.544 135.424 539.766 135.493C547.851 135.5 554.463 135.794 554.46 136.144C554.457 136.494 554.08 138.204 553.622 139.943C553.164 141.683 552.311 145.501 551.727 148.429L550.665 153.753L535.153 153.244C456.094 150.65 391.175 88.3424 387.379 11.4131L386.856 0.796387H377.403H367.951L368.264 5.31505L368.578 9.8328H359.533H350.487L350.801 5.31505L351.114 0.796387H341.529H331.943V6.20053C331.943 11.068 331.742 11.6498 329.908 12.0582C328.788 12.3076 325.1 13.1281 321.711 13.8825C318.322 14.6361 315.18 15.2532 314.729 15.2532C314.26 15.2532 314.148 12.1549 314.467 8.0248L315.025 0.796387H305.923H296.82L296.183 7.79891C294.821 22.7906 295.72 21.3504 284.117 27.1331C274.998 31.6771 273.924 32.024 274.314 30.2955C276.954 18.5945 277.703 14.3406 278.225 8.09347L278.835 0.796387H269.73H260.627L260.021 6.89536C254.566 61.7608 200.563 95.5138 149.63 75.8941C121.669 65.1229 101.06 37.6658 98.8563 8.25068L98.2981 0.796387H89.1386H79.9799L80.6031 9.31868C85.0228 69.6858 144.651 111.848 204.231 96.7345C207.807 95.8283 210.732 95.1642 210.732 95.2599C210.732 96.8122 200.311 115.551 199.184 116.024C195.545 117.555 168.818 117.579 160.077 116.06C106.925 106.824 66.3834 62.5396 62.7426 9.74064L62.1257 0.796387H53.0737H44.0218L44.5446 10.5096C48.3067 80.392 107.813 135.467 179.581 135.49L194.111 135.494L192.145 144.269L190.181 153.045L174.903 152.934C98.0747 152.377 33.945 91.8292 26.9238 13.2202L25.8148 0.796387H16.9628H8.11073V5.31414ZM116.225 5.99181C122.797 62.7384 190.878 84.2285 227.756 41.1987C235.89 31.7087 242.392 15.3851 242.392 4.45848V0.796387H233.523H224.654L223.534 7.45375C218.465 37.5899 186.586 54.2197 159.378 40.9231C146.909 34.8295 136.01 19.574 134.982 6.77428L134.501 0.796387H125.062H115.623L116.225 5.99181ZM152.313 4.59853C155.015 21.4733 171.75 31.6093 188.24 26.3578C197.395 23.4421 206.21 12.154 206.21 3.34621V0.796387H197.164C189.475 0.796387 188.118 1.01324 188.118 2.24207C188.118 10.4075 172.859 11.5514 171.248 3.50614L170.706 0.796387H161.205H151.704L152.313 4.59853ZM476.673 4.45848C476.673 15.3851 483.175 31.7087 491.309 41.1987C528.187 84.2285 596.268 62.7384 602.84 5.99181L603.442 0.796387H594.003H584.564L584.083 6.77428C583.055 19.574 572.156 34.8295 559.687 40.9231C532.479 54.2197 500.601 37.5899 495.531 7.45375L494.412 0.796387H485.542H476.673V4.45848ZM512.856 3.34621C512.856 12.154 521.671 23.4421 530.825 26.3578C547.315 31.6093 564.05 21.4733 566.752 4.59853L567.361 0.796387H557.86H548.36L547.817 3.50614C546.206 11.5514 530.947 10.4075 530.947 2.24207C530.947 1.01324 529.59 0.796387 521.901 0.796387H512.856V3.34621ZM837.16 5.99181C843.732 62.7384 911.813 84.2285 948.691 41.1987C956.825 31.7087 963.327 15.3851 963.327 4.45848V0.796387H954.458H945.588L944.469 7.45375C939.399 37.5899 907.521 54.2197 880.313 40.9231C867.844 34.8295 856.945 19.574 855.917 6.77428L855.436 0.796387H845.997H836.558L837.16 5.99181ZM873.248 4.59853C875.95 21.4733 892.685 31.6093 909.175 26.3578C918.329 23.4421 927.144 12.154 927.144 3.34621V0.796387H918.099C910.41 0.796387 909.053 1.01324 909.053 2.24207C909.053 10.4075 893.794 11.5514 892.183 3.50614L891.64 0.796387H882.14H872.639L873.248 4.59853ZM1197.61 4.45848C1197.61 15.3851 1204.11 31.7087 1212.24 41.1987C1249.12 84.2285 1317.2 62.7384 1323.78 5.99181L1324.38 0.796387H1314.94H1305.5L1305.02 6.77428C1303.99 19.574 1293.09 34.8295 1280.62 40.9231C1253.41 54.2197 1221.54 37.5899 1216.47 7.45375L1215.35 0.796387H1206.48H1197.61V4.45848ZM1233.79 3.34621C1233.79 12.154 1242.61 23.4421 1251.76 26.3578C1268.25 31.6093 1284.98 21.4733 1287.69 4.59853L1288.3 0.796387H1278.8H1269.29L1268.75 3.50614C1267.14 11.5514 1251.88 10.4075 1251.88 2.24207C1251.88 1.01324 1250.52 0.796387 1242.84 0.796387H1233.79V3.34621ZM371.771 34.6796C372.568 38.1582 373.492 42.067 373.825 43.3654L374.431 45.7273L356.579 46.2242C281.945 48.3042 225.099 105.693 224.815 179.248L224.753 195.512L215.959 193.728L207.164 191.945L206.542 187.855C205.699 182.315 207.62 159.438 209.767 149.431C225.01 78.4078 288.232 27.3879 359.953 28.2327L370.324 28.3547L371.771 34.6796ZM731.34 30.3877C731.627 31.7548 732.449 35.3952 733.167 38.4799C733.885 41.5637 734.473 44.4587 734.473 44.9132C734.473 45.3677 726.637 45.9649 717.06 46.2405C641.625 48.4063 585.18 106.122 585.156 181.111L585.152 195.625L576.367 193.661L567.582 191.699L567.693 176.438C568.285 94.7973 635.951 28.951 720.209 28.0204L730.82 27.9029L731.34 30.3877ZM1092.71 34.6796C1093.5 38.1582 1094.43 42.067 1094.76 43.3654L1095.37 45.7273L1077.51 46.2242C1002.84 48.3051 946.123 105.576 945.767 179.248L945.688 195.512L936.894 193.728L928.099 191.945L927.51 188.018C925.918 177.417 929.62 150.087 934.818 134.07C955.386 70.6834 1014.99 27.4972 1080.89 28.2381L1091.26 28.3547L1092.71 34.6796ZM378.981 65.4798C380.783 65.9415 382.213 68.0811 386.021 76.0161C391.179 86.7648 391.244 87.1235 387.781 85.8088C377.781 82.0112 353.611 80.8022 340.747 83.4569C292.762 93.3571 261.081 131.959 261.017 180.603C260.997 195.927 261.31 198.485 264.64 210.197C265.168 212.054 264.318 211.798 254.935 207.28C243.012 201.537 243.703 202.742 242.752 186.024C239.458 128.124 282.732 74.8605 340.762 65.3895C348.63 64.1055 373.846 64.1651 378.981 65.4798ZM739.631 65.5548C742.221 66.5388 752.561 87.0331 750.081 86.2696C675.554 63.3185 604.788 130.346 623.955 205.734C624.862 209.305 625.527 212.227 625.431 212.227C623.877 212.227 605.117 201.818 604.643 200.692C603.111 197.057 603.087 170.359 604.608 161.628C613.394 111.179 653.584 72.1408 704.17 64.9214C710.604 64.0025 736.775 64.4705 739.631 65.5548ZM1099.92 65.4798C1101.72 65.9415 1103.15 68.0811 1106.96 76.0161C1112.11 86.7648 1112.18 87.1235 1108.72 85.8088C1098.72 82.0112 1074.55 80.8022 1061.68 83.4569C1013.68 93.3616 982.016 131.938 981.952 180.603C981.932 195.927 982.245 198.485 985.574 210.197C986.103 212.054 985.252 211.798 975.87 207.28C963.947 201.537 964.638 202.742 963.687 186.024C960.4 128.259 1003.8 74.8379 1061.7 65.3895C1069.56 64.1055 1094.78 64.1651 1099.92 65.4798ZM375.077 101.497C427.39 112.616 455.177 167.984 432.366 215.649C400.316 282.619 302.473 274.118 281.713 202.558C265.213 145.684 317.366 89.2314 375.077 101.497ZM741.5 102.865C831.18 129.517 813.296 261.297 720 261.297C621.383 261.297 610.204 119.578 707.336 100.763C713.312 99.606 735.029 100.942 741.5 102.865ZM1094.1 101.137C1147.54 110.593 1176.99 168.802 1152.7 217.005C1122.9 276.171 1038.04 276.171 1008.23 217.005C978.687 158.359 1029.55 89.7176 1094.1 101.137ZM-0.934872 126.653V136.081L5.0497 136.561C17.8637 137.589 33.1363 148.475 39.2367 160.93C52.5482 188.108 35.8997 219.951 5.72993 225.014L-0.934872 226.133V234.992V243.852H2.26908C24.3983 243.852 48.5844 226.867 57.4346 205.112C73.6235 165.313 47.7594 122.852 4.26635 117.825L-0.934872 117.224V126.653ZM350.385 118.201C289.655 127.829 276.565 210.091 331.457 237.151C385.429 263.757 442.466 207.069 416.08 153.045C404.267 128.856 376.401 114.076 350.385 118.201ZM710.734 118.28C663.424 125.706 640.762 181.542 669.814 219.102C706.783 266.898 782.763 241.011 782.808 180.603C782.836 142.199 748.348 112.375 710.734 118.28ZM1071.32 118.201C1010.59 127.829 997.5 210.091 1052.39 237.151C1106.36 263.757 1163.4 207.069 1137.02 153.045C1125.2 128.856 1097.34 114.076 1071.32 118.201ZM1431.67 118.335C1390.02 124.428 1365.84 170.061 1384.01 208.259C1393.51 228.237 1417.08 243.852 1437.73 243.852H1440.93V234.992V226.133L1434.27 225.014C1404.1 219.951 1387.45 188.108 1400.76 160.93C1406.86 148.475 1422.14 137.589 1434.95 136.561L1440.93 136.081V126.718C1440.93 116.055 1441.81 116.85 1431.67 118.335ZM372.954 138.157C405.346 148.15 414.982 189.922 390.231 213.05C360.073 241.23 312.355 218.645 314.996 177.441C316.81 149.112 345.479 129.68 372.954 138.157ZM739.177 140.608C778.892 160.267 770.32 217.631 726.558 225.038C697.108 230.024 670.02 202.14 675.976 172.97C681.982 143.549 713.014 127.659 739.177 140.608ZM1093.89 138.157C1126.28 148.15 1135.92 189.922 1111.17 213.05C1081.01 241.23 1033.29 218.645 1035.93 177.441C1037.75 149.112 1066.41 129.68 1093.89 138.157ZM475.791 168.373C484.774 239.722 421.09 304.539 349.246 297.169C343.461 296.576 338.578 295.944 338.394 295.765C337.687 295.076 328.44 275.964 328.692 275.712C328.839 275.565 332.581 276.351 337.009 277.459C382.455 288.825 434.596 261.797 451.451 218.137C458.733 199.275 460.558 175.436 456.077 157.717C454.967 153.329 454.059 149.663 454.059 149.568C454.059 149.474 458.694 151.641 464.358 154.383L474.657 159.37L475.791 168.373ZM1196.73 168.373C1205.71 239.71 1142.01 304.538 1070.18 297.169C1064.4 296.576 1059.51 295.944 1059.33 295.765C1058.62 295.076 1049.38 275.964 1049.63 275.712C1049.77 275.565 1053.52 276.351 1057.94 277.459C1070.27 280.543 1092.31 280.313 1104.89 276.97C1160.11 262.295 1190.92 207.322 1175.39 151.192C1174.95 149.595 1176.31 150.032 1185.23 154.354L1195.59 159.37L1196.73 168.373ZM825.747 154.824C836.896 160.267 836.255 158.627 836.172 181.507C835.965 238.712 797.293 285.075 740.805 295.843C731.519 297.613 710.273 298.01 702.813 296.553L698.743 295.758L693.552 285.391C690.697 279.689 688.357 274.94 688.35 274.838C688.345 274.736 689.867 275.185 691.732 275.835C707.493 281.328 732.329 280.924 751.207 274.868C797.749 259.936 828.022 208.123 817.37 161.628C814.72 150.066 814.654 149.621 815.627 149.987C816.134 150.178 820.688 152.354 825.747 154.824ZM-0.934872 162.755V172.245L1.77791 172.787C9.83211 174.397 8.68694 189.639 0.512426 189.639C-0.717777 189.639 -0.934872 190.994 -0.934872 198.674V207.71H1.6178C10.4355 207.71 21.7361 198.904 24.6552 189.761C29.9125 173.289 19.7651 156.572 2.87152 153.873L-0.934872 153.265V162.755ZM352.296 154.706C322.085 164.703 327.948 207.277 359.533 207.251C394.355 207.223 395.748 156.244 360.992 153.858C358.199 153.665 354.286 154.048 352.296 154.706ZM711.243 155.117C692.187 161.92 686.763 185.405 700.958 199.645C721.512 220.262 755.484 198.437 745.273 171.176C740.266 157.81 724.518 150.378 711.243 155.117ZM1073.23 154.706C1043.02 164.703 1048.88 207.277 1080.47 207.251C1115.29 207.223 1116.68 156.244 1081.93 153.858C1079.13 153.665 1075.22 154.048 1073.23 154.706ZM1432.18 155.174C1405.33 164.442 1410.44 207.71 1438.38 207.71H1440.93V198.674C1440.93 191.288 1440.69 189.639 1439.59 189.639C1431.44 189.639 1430.2 174.389 1438.22 172.787L1440.93 172.245V162.871C1440.93 152.086 1440.99 152.132 1432.18 155.174ZM504.897 168.411L511.864 169.922L512.472 173.971C512.807 176.197 512.79 182.566 512.435 188.121C507.278 268.922 444.337 330.74 364.879 333.043L348.516 333.517L346.948 325.633C346.086 321.297 345.202 317.284 344.984 316.717C344.697 315.969 348.762 315.675 359.749 315.651C436.337 315.48 496.736 253.465 494.621 177.172C494.323 166.448 494.375 166.076 496.121 166.48C497.116 166.71 501.066 167.578 504.897 168.411ZM860.981 167.412C863.789 168.109 867.613 168.94 869.479 169.261L872.871 169.843V180.442C872.871 263.665 808.019 330.715 725.246 333.07L709.236 333.525L708.754 331.381C706.354 320.701 705.527 316.836 705.527 316.306C705.527 315.964 712.142 315.662 720.226 315.636C795.788 315.389 854.774 256.321 854.847 180.829C854.855 172.754 855.09 166.146 855.368 166.146C855.647 166.146 858.173 166.716 860.981 167.412ZM1225.83 168.411L1232.8 169.922L1233.41 173.971C1233.74 176.197 1233.72 182.566 1233.37 188.121C1228.21 268.922 1165.27 330.74 1085.81 333.043L1069.45 333.517L1067.88 325.633C1067.02 321.297 1066.14 317.284 1065.92 316.717C1065.63 315.969 1069.7 315.675 1080.68 315.651C1157.27 315.48 1217.67 253.465 1215.56 177.172C1215.26 166.448 1215.31 166.076 1217.06 166.48C1218.05 166.71 1222 167.578 1225.83 168.411ZM188.118 180.603V189.639H179.073H170.027V180.603V171.568H179.073H188.118V180.603ZM549.038 180.603V189.639H539.992H530.947V180.603V171.568H539.992H549.038V180.603ZM909.053 180.603V189.639H900.008H890.962V180.603V171.568H900.008H909.053V180.603ZM1269.97 180.603V189.639H1260.93H1251.88V180.603V171.568H1260.93H1269.97V180.603ZM365.695 175.006C371.13 180.672 367.43 189.187 359.533 189.187C356.023 189.187 354.935 188.757 353.122 186.651C348.169 180.9 351.979 172.471 359.533 172.471C362.441 172.471 363.801 173.03 365.695 175.006ZM724.573 173.402C731.824 177.278 728.343 189.639 720 189.639C716.562 189.639 710.954 184.626 710.954 181.552C710.954 174.75 718.57 170.192 724.573 173.402ZM1086.63 175.006C1092.06 180.672 1088.37 189.187 1080.47 189.187C1076.96 189.187 1075.87 188.757 1074.06 186.651C1069.1 180.9 1072.91 172.471 1080.47 172.471C1083.38 172.471 1084.74 173.03 1086.63 175.006ZM206.221 210.462C277.472 223.277 329.59 283.511 331.682 355.458L332.155 371.741L324.206 373.391C319.834 374.299 315.818 375.21 315.281 375.416C314.607 375.673 314.294 371.098 314.271 360.646C314.1 284.127 252.031 223.81 175.638 225.924C164.902 226.222 164.529 226.169 164.934 224.425C165.164 223.431 166.033 219.491 166.864 215.668C168.114 209.923 168.715 208.641 170.332 208.273C174.336 207.364 196.514 208.716 206.221 210.462ZM553.109 208.649C633.626 216.245 695.903 285.763 692.705 364.476L692.411 371.704L685.627 373.142C681.895 373.932 677.926 374.875 676.807 375.235L674.772 375.892V362.795C674.772 285.997 616.781 226.675 541.349 226.311L525.067 226.232L526.85 217.46C528.34 210.129 528.935 208.627 530.468 208.321C534.113 207.596 543.355 207.729 553.109 208.649ZM927.156 210.462C998.343 223.266 1050.81 283.877 1052.67 355.458L1053.09 371.741L1045.14 373.391C1040.77 374.299 1036.75 375.21 1036.22 375.416C1035.54 375.673 1035.23 371.098 1035.21 360.646C1035.04 284.127 972.966 223.81 896.573 225.924C885.837 226.222 885.464 226.169 885.868 224.425C886.099 223.431 886.967 219.491 887.799 215.668C889.049 209.923 889.65 208.641 891.267 208.273C895.271 207.364 917.448 208.716 927.156 210.462ZM1274.04 208.649C1354.29 216.219 1416.2 284.941 1413.61 363.571L1413.35 371.703L1406.56 373.141C1402.83 373.932 1398.92 374.857 1397.87 375.196C1395.98 375.806 1395.95 375.621 1395.46 357.947C1393.37 283.359 1335.94 226.578 1262.28 226.295L1246 226.232L1247.78 217.46C1249.27 210.129 1249.87 208.627 1251.4 208.321C1255.05 207.596 1264.29 207.729 1274.04 208.649ZM201.664 246.104C260.163 257.772 301.744 313.018 295.769 371.137C295.175 376.915 294.543 381.793 294.363 381.977C293.673 382.683 274.54 391.919 274.288 391.667C274.141 391.521 274.928 387.783 276.037 383.36C279.124 371.043 278.894 349.034 275.547 336.466C260.847 281.274 205.861 250.536 149.593 266.055C147.889 266.524 155.396 249.181 158.108 246.382C160.629 243.78 189.101 243.599 201.664 246.104ZM555.988 245.252C616.05 254.16 658.74 305.252 656.359 365.379C655.677 382.59 656.343 381.342 644.707 387.172C633.038 393.017 633.718 393.169 636.047 385.245C640.208 371.084 639.267 345.742 633.981 329.634C618.118 281.288 564.682 251.791 516.099 264.561C512.16 265.596 508.84 266.341 508.72 266.215C508.293 265.773 518.319 246.106 519.107 245.84C525.124 243.807 544.199 243.504 555.988 245.252ZM922.599 246.104C981.078 257.767 1022.68 313.037 1016.7 371.137C1016.11 376.915 1015.48 381.793 1015.3 381.977C1014.61 382.683 995.475 391.919 995.223 391.667C995.076 391.521 995.863 387.783 996.972 383.36C1008.35 337.945 981.312 285.89 937.583 269.045C918.7 261.772 894.834 259.948 877.096 264.425C872.703 265.533 869.033 266.44 868.938 266.44C868.844 266.44 871.013 261.806 873.758 256.141L878.75 245.842L885.082 244.903C893.195 243.7 913.864 244.362 922.599 246.104ZM1276.92 245.252C1336.98 254.16 1379.67 305.252 1377.29 365.379C1376.61 382.59 1377.28 381.342 1365.64 387.172C1353.97 393.017 1354.65 393.169 1356.98 385.245C1361.14 371.084 1360.2 345.742 1354.92 329.634C1339.05 281.288 1285.62 251.791 1237.03 264.561C1233.09 265.596 1229.78 266.341 1229.65 266.215C1229.23 265.773 1239.25 246.106 1240.04 245.84C1246.06 243.807 1265.13 243.504 1276.92 245.252ZM201.043 283.11C260.48 300.431 280.005 373.829 236.808 417.547C195.026 459.833 122.398 443.554 102.925 387.536C81.6226 326.26 139.121 265.065 201.043 283.11ZM553.998 281.372C612.106 291.493 639.896 359.65 605.566 407.846C569.051 459.11 489.294 449.939 465.015 391.685C440.633 333.182 491.242 270.44 553.998 281.372ZM921.978 283.11C981.414 300.431 1000.94 373.829 957.743 417.547C913.377 462.448 837.382 441.429 821.767 379.938C806.745 320.789 863.405 266.041 921.978 283.11ZM1274.93 281.372C1339.86 292.681 1364.24 374.107 1316.24 419.337C1264.56 468.036 1180.16 431.769 1180.16 360.862C1180.16 310.209 1224.93 272.66 1274.93 281.372ZM164.154 299.468C124.441 309.47 104.522 353.962 123.519 390.227C147.231 435.49 213.051 434.716 235.684 388.906C259.304 341.097 215.639 286.5 164.154 299.468ZM526.562 299.035C486.927 306.821 465.184 352.074 483.381 388.906C506.014 434.716 571.834 435.49 595.546 390.227C620.265 343.043 579.159 288.703 526.562 299.035ZM885.089 299.468C845.376 309.47 825.456 353.962 844.454 390.227C868.141 435.442 934.01 434.666 956.619 388.906C980.235 341.105 936.565 286.503 885.089 299.468ZM1246.45 299.348C1200.04 309.902 1181.76 368.09 1213.88 403.095C1252.86 445.594 1323.71 418.351 1323.71 360.862C1323.71 320.488 1285.9 290.379 1246.45 299.348ZM190.342 317.519C223.715 326.202 235.203 366.276 211.555 391.525C184.036 420.911 134.749 401.233 134.749 360.862C134.749 331.489 162.094 310.17 190.342 317.519ZM556.378 319.225C582.666 329.883 592.64 362.378 576.832 385.868C555.232 417.967 505.027 408.744 496.128 371.044C487.924 336.287 523.337 305.83 556.378 319.225ZM911.277 317.519C944.65 326.202 956.137 366.276 932.49 391.525C904.971 420.911 855.684 401.233 855.684 360.862C855.684 331.489 883.029 310.17 911.277 317.519ZM1277.31 319.225C1314.43 334.274 1314.43 387.545 1277.31 402.479C1252.34 412.526 1223.27 397.359 1217.06 371.044C1208.86 336.287 1244.27 305.83 1277.31 319.225ZM84.4701 331.722C74.0152 364.398 82.9731 403.14 106.886 428.675C126.018 449.103 149.91 459.228 179.073 459.267C194.414 459.287 196.975 458.974 208.7 455.649C210.559 455.121 210.303 455.97 205.78 465.342C200.03 477.252 201.236 476.562 184.5 477.512C117.114 481.337 59.886 424.39 62.7353 356.344C63.4789 338.586 62.7634 339.972 74.0206 334.497C85.1684 329.076 85.3304 329.032 84.4701 331.722ZM445.014 330.069C445.014 330.279 444.113 334.04 443.014 338.427C425.246 409.28 495.423 476.851 565.711 456.57C568.164 455.862 570.41 455.283 570.702 455.283C570.994 455.283 568.987 459.912 566.242 465.57L561.25 475.857L552.236 476.99C480.833 485.959 415.921 422.324 423.296 350.586C423.89 344.808 424.531 339.922 424.72 339.728C426.083 338.333 445.014 329.323 445.014 330.069ZM805.405 331.722C794.95 364.398 803.908 403.14 827.821 428.675C846.952 449.103 870.845 459.228 900.008 459.267C915.349 459.287 917.91 458.974 929.635 455.649C931.494 455.121 931.238 455.97 926.715 465.342C920.965 477.252 922.171 476.562 905.435 477.512C838.049 481.337 780.821 424.39 783.67 356.344C784.414 338.586 783.698 339.972 794.956 334.497C806.103 329.076 806.265 329.032 805.405 331.722ZM1165.95 330.069C1165.95 330.279 1165.05 334.04 1163.95 338.427C1152.58 383.75 1179.67 435.853 1223.35 452.678C1242.23 459.951 1266.1 461.775 1283.84 457.298C1288.23 456.19 1291.9 455.283 1292 455.283C1292.09 455.283 1289.92 459.912 1287.18 465.57L1282.18 475.857L1273.17 476.99C1201.77 485.959 1136.86 422.324 1144.23 350.586C1144.83 344.808 1145.47 339.922 1145.65 339.728C1147.02 338.333 1165.95 329.323 1165.95 330.069ZM174.983 334.282C158.001 336.453 147.325 355.951 154.492 371.704C166.669 398.467 205.727 390.205 205.751 360.862C205.764 343.235 192.769 332.008 174.983 334.282ZM535.342 334.272C509.792 338.291 504.374 373.206 527.51 384.753C538.211 390.095 551.214 388.027 559.17 379.719C577.149 360.939 561.047 330.229 535.342 334.272ZM895.918 334.282C863.487 338.428 867.329 387.466 900.089 387.507C916.298 387.528 926.672 377.134 926.686 360.862C926.699 343.235 913.704 332.008 895.918 334.282ZM1256.28 334.272C1230.73 338.291 1225.31 373.206 1248.44 384.753C1259.15 390.095 1272.15 388.027 1280.1 379.719C1298.08 360.939 1281.98 330.229 1256.28 334.272ZM44.5437 363.798C46.6296 438.512 104.187 495.216 178.168 495.442L193.998 495.491L192.212 504.275L190.428 513.06L186.496 513.648C175.883 515.239 148.523 511.54 132.488 506.349C68.331 485.578 23.6827 422.864 26.3602 357.282L26.6542 350.088L34.7953 348.124C39.2729 347.044 43.186 346.114 43.4908 346.057C43.7957 346 44.2696 353.983 44.5437 363.798ZM404.794 361.087C404.966 437.607 467.23 498.065 543.546 495.814C554.165 495.501 554.533 495.553 554.131 497.298C553.901 498.292 553.032 502.237 552.199 506.064L550.685 513.023L546.632 513.63C535.544 515.291 508.727 511.5 491.883 505.889C430.624 485.485 388.983 429.856 387.332 366.216L386.908 349.885L395.382 348.037C400.042 347.022 404.06 346.137 404.308 346.072C404.557 346.007 404.776 352.764 404.794 361.087ZM765.479 363.798C767.562 438.425 824.9 495.057 898.733 495.412L915.098 495.491L913.973 499.759C913.354 502.106 912.569 506.05 912.228 508.524L911.609 513.023L907.392 513.663C896.706 515.284 868.856 511.386 852.066 505.918C789.213 485.45 744.644 422.22 747.295 357.282L747.589 350.088L755.73 348.124C760.208 347.044 764.121 346.114 764.426 346.057C764.731 346 765.205 353.983 765.479 363.798ZM1125.73 361.087C1125.9 437.607 1188.16 498.065 1264.48 495.814C1275.1 495.501 1275.47 495.553 1275.07 497.298C1274.84 498.292 1273.97 502.237 1273.13 506.064L1271.62 513.023L1267.57 513.63C1265.34 513.965 1258.96 513.947 1253.4 513.593C1172.52 508.442 1110.62 445.571 1108.32 366.216L1107.84 349.885L1116.32 348.037C1120.98 347.022 1124.99 346.137 1125.24 346.072C1125.49 346.007 1125.71 352.764 1125.73 361.087ZM729.046 360.862V369.897H720H710.954V360.862V351.826H720H729.046V360.862ZM185.128 354.458C187.235 356.269 187.666 357.356 187.666 360.862C187.666 368.903 178.794 372.574 173.272 366.817C165.627 358.847 176.746 347.257 185.128 354.458ZM368.126 360.862V369.445H359.533H350.939V360.862V352.278H359.533H368.126V360.862ZM545.596 354.706C551.085 359.958 547.402 369.445 539.874 369.445C534.593 369.445 531.399 366.211 531.399 360.862C531.399 352.973 539.924 349.277 545.596 354.706ZM906.063 354.458C908.17 356.269 908.601 357.356 908.601 360.862C908.601 368.903 899.729 372.574 894.207 366.817C886.562 358.847 897.681 347.257 906.063 354.458ZM1089.06 360.862V369.445H1080.47H1071.87V360.862V352.278H1080.47H1089.06V360.862ZM1266.53 354.706C1272.02 359.958 1268.34 369.445 1260.81 369.445C1255.53 369.445 1252.33 366.211 1252.33 360.862C1252.33 352.973 1260.86 349.277 1266.53 354.706ZM372.153 396.269C372.995 400.507 373.863 404.439 374.081 405.006C374.368 405.754 370.303 406.048 359.316 406.072C282.696 406.244 222.328 468.227 224.445 544.551C224.742 555.275 224.69 555.647 222.944 555.243C221.949 555.013 218 554.145 214.168 553.312L207.201 551.801L206.593 547.752C204.276 532.322 210.514 499.801 219.86 478.589C244.526 422.599 304.838 385.069 365.01 388.266L370.621 388.564L372.153 396.269ZM730.712 388.912C731.065 389.228 734.415 403.765 734.449 405.135C734.464 405.7 728.954 406.057 719.774 406.087C644.212 406.334 585.226 465.402 585.153 540.894C585.145 548.97 584.91 555.577 584.632 555.577C584.353 555.577 581.827 555.007 579.019 554.311C576.211 553.614 572.329 552.772 570.392 552.439L566.871 551.832L567.382 536.311C569.737 464.645 619.475 405.596 689.697 391.097C701.895 388.579 728.734 387.149 730.712 388.912ZM1093.09 396.269C1093.93 400.507 1094.8 404.439 1095.02 405.006C1095.3 405.754 1091.24 406.048 1080.25 406.072C1003.63 406.244 943.263 468.227 945.38 544.551C945.677 555.275 945.625 555.647 943.879 555.243C942.884 555.013 938.934 554.145 935.103 553.312L928.136 551.801L927.528 547.752C925.211 532.322 931.449 499.801 940.795 478.589C965.453 422.619 1025.85 385.047 1085.99 388.266L1091.56 388.564L1093.09 396.269ZM371.69 424.687L380.745 425.716L385.689 435.733C391.558 447.628 391.938 446.736 382.056 444.264C336.59 432.893 284.478 459.906 267.614 503.586C260.332 522.448 258.507 546.287 262.988 564.006C264.098 568.394 265.006 572.076 265.006 572.189C265.006 572.303 260.438 570.102 254.855 567.299C242.68 561.187 243.036 561.956 242.937 541.572C242.6 471.725 303.007 416.885 371.69 424.687ZM737.637 425.318C741.197 425.937 741.336 426.111 746.364 436.185C750.915 445.302 751.263 446.374 749.532 445.985C748.464 445.745 744.536 444.825 740.805 443.942C670.748 427.365 606.119 494.431 623.838 565.322C625.68 572.691 625.961 572.636 614.729 567.109C603.04 561.358 603.745 563.095 603.828 540.216C604.088 468.652 668.543 413.306 737.637 425.318ZM1092.62 424.687L1101.68 425.716L1106.62 435.733C1112.49 447.628 1112.87 446.736 1102.99 444.264C1057.53 432.893 1005.41 459.906 988.549 503.586C981.267 522.448 979.442 546.287 983.923 564.006C985.033 568.394 985.941 572.076 985.941 572.189C985.941 572.303 981.373 570.102 975.79 567.299C963.614 561.187 963.971 561.956 963.872 541.572C963.535 471.725 1023.94 416.885 1092.62 424.687ZM377.012 462.024C437.59 474.771 461.032 550.406 418.504 595.894C367.17 650.801 274.742 611.543 278.886 536.593C281.101 496.56 309.53 466.668 351.392 460.359C356.056 459.656 370.093 460.567 377.012 462.024ZM730.563 460.771C780.277 467.59 812.703 518.869 796.922 565.714C771.877 640.063 668.268 639.93 643.022 565.516C624.381 510.572 672.642 452.826 730.563 460.771ZM1097.95 462.024C1158.59 474.784 1182.08 551.022 1139.27 596.121C1087.52 650.635 995.683 611.432 999.821 536.593C1002.04 496.56 1030.47 466.668 1072.33 460.359C1076.99 459.656 1091.03 460.567 1097.95 462.024ZM-0.934872 486.731V495.59L5.72993 496.709C35.8997 501.772 52.5482 533.615 39.2367 560.793C33.1363 573.247 17.8637 584.134 5.0497 585.162L-0.934872 585.642V595.07V604.499L4.26635 603.898C55.336 597.996 79.6823 541.504 48.3782 501.541C37.7568 487.981 18.2599 477.871 2.73131 477.871H-0.934872V486.731ZM345.512 479.273C306.435 487.632 285.203 532.27 302.985 568.678C325.873 615.541 393.184 615.541 416.082 568.678C439.257 521.248 397.369 468.18 345.512 479.273ZM705.046 479.567C657.442 491.267 640.67 550.503 675.211 584.942C715.404 625.016 782.85 597.547 782.808 541.12C782.777 499.72 744.933 469.765 705.046 479.567ZM1066.45 479.273C1027.37 487.632 1006.14 532.27 1023.92 568.678C1046.81 615.54 1114.13 615.54 1137.02 568.678C1160.21 521.18 1118.37 468.165 1066.45 479.273ZM1425.98 479.567C1356.96 496.53 1364.74 595.694 1435.73 603.898L1440.93 604.499V595.07V585.642L1434.95 585.162C1422.14 584.134 1406.86 573.247 1400.76 560.793C1387.43 533.571 1404.44 501.264 1434.56 496.607L1440.93 495.622V486.746V477.871L1436.64 477.938C1434.28 477.974 1429.48 478.708 1425.98 479.567ZM369.726 497.305C401.532 504.795 414.911 543.361 394.521 568.781C376.698 591.003 342.367 591.003 324.544 568.781C298.235 535.981 328.779 487.661 369.726 497.305ZM728.244 496.859C770.567 504.827 777.971 561.912 739.173 581.117L731.444 584.942H720H708.556L700.827 581.117C654.295 558.085 677.336 487.276 728.244 496.859ZM1090.66 497.305C1122.47 504.795 1135.85 543.361 1115.46 568.781C1097.63 591.003 1063.3 591.003 1045.48 568.781C1019.17 535.981 1049.71 487.661 1090.66 497.305ZM465.024 514.748C476.111 520.189 475.382 518.81 476.349 536.15C480.083 603.057 422.901 660.164 355.01 657.327C337.18 656.582 338.633 657.351 333.044 645.707C327.419 633.984 327.236 634.739 335.122 637.13C343.913 639.796 373.515 640.018 382.547 637.486C429.847 624.229 457.986 588.312 458.048 541.12C458.068 525.756 457.771 523.334 454.395 511.408C454.058 510.22 454.151 509.429 454.6 509.644C455.049 509.858 459.74 512.155 465.024 514.748ZM824.72 514.481C836.615 520.423 835.911 519.069 836.452 537.054C838.159 593.788 802.189 640.748 746.287 654.77C736.164 657.309 705.24 658.307 700.369 656.251C697.761 655.152 687.487 634.704 689.919 635.453C705.004 640.099 730.514 640.853 744.403 637.063C798.281 622.361 829.623 569.394 816.045 515.99C815.138 512.418 814.473 509.496 814.569 509.496C814.665 509.496 819.233 511.739 824.72 514.481ZM1185.96 514.748C1197.05 520.189 1196.32 518.81 1197.28 536.15C1201.02 603.057 1143.84 660.164 1075.94 657.327C1058.11 656.582 1059.57 657.351 1053.98 645.707C1048.35 633.984 1048.17 634.739 1056.06 637.13C1064.85 639.796 1094.45 640.018 1103.48 637.486C1150.78 624.229 1178.92 588.312 1178.98 541.12C1179 525.756 1178.71 523.334 1175.33 511.408C1174.99 510.22 1175.09 509.429 1175.54 509.644C1175.98 509.858 1180.67 512.155 1185.96 514.748ZM-0.934872 523.049C-0.934872 530.729 -0.717777 532.084 0.512426 532.084C8.68694 532.084 9.83211 547.326 1.77791 548.936L-0.934872 549.478V558.968V568.458L2.87152 567.85C19.7651 565.151 29.9125 548.434 24.6552 531.962C21.7361 522.818 10.4355 514.013 1.6178 514.013H-0.934872V523.049ZM350.671 515.262C322.193 525.859 329.266 567.726 359.533 567.726C394.18 567.726 395.597 515.85 360.993 514.294C356.557 514.095 352.882 514.439 350.671 515.262ZM710.054 515.589C704.109 517.685 696.388 525.765 694.41 531.962C685.685 559.301 718.844 580.224 738.996 560.095C759.55 539.563 737.639 505.867 710.054 515.589ZM1071.61 515.262C1043.13 525.859 1050.2 567.726 1080.47 567.726C1115.11 567.726 1116.53 515.85 1081.93 514.294C1077.49 514.095 1073.82 514.439 1071.61 515.262ZM1430.99 515.589C1405.57 524.55 1410.15 563.54 1437.13 567.85L1440.93 568.458V558.968V549.478L1438.22 548.936C1430.17 547.326 1431.31 532.084 1439.49 532.084C1440.72 532.084 1440.93 530.729 1440.93 523.049V514.013L1438 514.085C1436.38 514.124 1433.23 514.801 1430.99 515.589ZM512.523 533.868C513.366 539.408 511.445 562.285 509.298 572.292C493.953 643.79 427.776 696.322 356.413 693.654L348.771 693.368L346.73 684.785C345.608 680.064 344.671 675.998 344.647 675.749C344.624 675.501 350.202 675.423 357.043 675.576C432.844 677.278 494.032 617.726 494.263 542.023L494.312 526.211L503.106 527.995L511.901 529.778L512.523 533.868ZM872.307 545.285C871.714 627.012 802.802 693.741 718.923 693.813C708.259 693.822 709.367 695.105 705.959 678.804L705.371 675.987L722.861 675.483C798.376 673.311 854.81 615.633 854.827 540.609L854.83 526.095L863.624 528.06L872.419 530.024L872.307 545.285ZM1233.46 533.868C1234.3 539.408 1232.38 562.285 1230.23 572.292C1214.89 643.79 1148.71 696.322 1077.35 693.654L1069.71 693.368L1067.67 684.785C1066.54 680.064 1065.61 675.998 1065.58 675.749C1065.56 675.501 1071.14 675.423 1077.98 675.576C1154.84 677.301 1217.57 614.611 1215.56 538.08L1215.25 526.211L1224.04 527.995L1232.84 529.778L1233.46 533.868ZM188.118 541.061V550.038H179.073H170.027V541.061V532.084H179.073H188.118V541.061ZM366.091 535.267C370.91 540.807 366.951 549.252 359.533 549.252C352.557 549.252 348.427 541.49 352.393 535.835C355.47 531.447 362.513 531.154 366.091 535.267ZM549.038 541.077V550.07L539.992 550.038L530.947 550.005V541.045V532.084H539.992H549.038V541.077ZM725.97 535.157C733.168 542.346 724.498 553.171 715.427 548.321C708.177 544.445 711.657 532.084 720 532.084C722.086 532.084 723.754 532.943 725.97 535.157ZM909.053 541.061V550.038H900.008H890.962V541.061V532.084H900.008H909.053V541.061ZM1087.03 535.267C1091.84 540.807 1087.89 549.252 1080.47 549.252C1073.49 549.252 1069.36 541.49 1073.33 535.835C1076.41 531.447 1083.45 531.154 1087.03 535.267ZM1269.97 541.077V550.07L1260.93 550.038L1251.88 550.005V541.045V532.084H1260.93H1269.97V541.077ZM209.375 570.955C279.712 585.676 329.688 644.802 331.71 715.686L332.166 731.679L330.019 732.175C319.961 734.501 315.983 735.359 315.209 735.37C314.645 735.378 314.286 729.864 314.257 720.701C314.01 645.246 254.911 586.344 179.299 586.191C171.215 586.175 164.6 585.946 164.6 585.682C164.6 585.418 165.171 582.908 165.867 580.103C166.564 577.298 167.408 573.418 167.742 571.481L168.35 567.959L184.34 568.51C195.191 568.884 203.237 569.67 209.375 570.955ZM569.391 570.941C642.383 586.293 692.795 648.134 692.856 722.397L692.863 731.546L684.496 733.471C679.895 734.53 675.876 735.393 675.567 735.39C675.259 735.386 674.781 727.556 674.505 717.99C672.334 642.553 614.673 586.268 539.489 586.196L524.965 586.183L526.986 577.43C528.097 572.617 529.036 568.517 529.073 568.321C529.284 567.165 561.34 569.247 569.391 570.941ZM930.31 570.955C1000.65 585.676 1050.62 644.802 1052.64 715.686L1053.1 731.679L1050.95 732.175C1040.9 734.501 1036.92 735.359 1036.14 735.37C1035.58 735.378 1035.22 729.864 1035.19 720.701C1034.94 645.246 975.846 586.344 900.234 586.191C892.15 586.175 885.535 585.946 885.535 585.682C885.535 585.418 886.105 582.908 886.802 580.103C887.499 577.298 888.343 573.418 888.677 571.481L889.285 567.959L905.275 568.51C916.126 568.884 924.172 569.67 930.31 570.955ZM1290.33 570.941C1363.32 586.293 1413.73 648.134 1413.79 722.397L1413.8 731.546L1405.43 733.471C1400.83 734.53 1396.81 735.393 1396.5 735.39C1396.19 735.386 1395.72 727.556 1395.44 717.99C1393.27 642.553 1335.61 586.268 1260.42 586.196L1245.9 586.183L1247.92 577.43C1249.03 572.617 1249.97 568.517 1250.01 568.321C1250.22 567.165 1282.27 569.247 1290.33 570.941ZM208.471 607.866C265.636 622.699 305.9 683.19 295.152 738.094L294.356 742.16L284.117 747.263C274.998 751.807 273.924 752.154 274.314 750.426C274.555 749.359 275.475 745.435 276.359 741.708C292.955 671.729 225.814 607.173 154.843 624.872C151.716 625.652 148.956 626.089 148.71 625.844C148.337 625.47 156.822 607.432 157.936 606.234C160.767 603.188 194.66 604.283 208.471 607.866ZM559.548 605.765C605.896 613.822 642.011 647.87 653.746 694.573C656.311 704.777 657.322 735.642 655.253 740.536C654.152 743.14 633.681 753.403 634.431 750.974C639.083 735.906 639.837 710.425 636.042 696.551C621.32 642.716 568.314 611.422 514.834 624.988C511.258 625.895 508.333 626.559 508.333 626.463C508.333 626.367 510.599 621.765 513.368 616.235C518.507 605.971 518.553 605.924 524.615 604.97C530.781 604 552.199 604.488 559.548 605.765ZM929.406 607.866C984.503 622.162 1022.54 675.816 1016.75 731.092C1015.5 743.047 1016.6 741.577 1004.5 747.552C995.853 751.824 994.863 752.13 995.251 750.41C995.491 749.351 996.41 745.435 997.294 741.708C1013.89 671.729 946.749 607.173 875.778 624.872C872.651 625.652 869.891 626.089 869.645 625.844C869.272 625.47 877.757 607.432 878.871 606.234C881.702 603.188 915.595 604.283 929.406 607.866ZM1280.48 605.765C1326.75 613.81 1362.97 647.948 1374.68 694.573C1377.25 704.777 1378.26 735.642 1376.19 740.536C1375.09 743.14 1354.62 753.403 1355.37 750.974C1360.02 735.906 1360.77 710.425 1356.98 696.551C1342.25 642.716 1289.25 611.422 1235.77 624.988C1232.19 625.895 1229.27 626.559 1229.27 626.463C1229.27 626.367 1231.53 621.765 1234.3 616.235C1239.44 605.971 1239.49 605.924 1245.55 604.97C1251.72 604 1273.13 604.488 1280.48 605.765ZM197.759 642.398C250.386 653.947 276.839 716.591 248.508 762.577C206.617 830.571 102.246 804.003 98.8264 724.475C96.5044 670.452 144.426 630.694 197.759 642.398ZM556.29 641.854C618.414 654.31 642.079 732.884 597.201 777.69C554.758 820.062 481.99 803.289 463.242 746.812C443.548 687.486 494.912 629.548 556.29 641.854ZM918.694 642.398C978.717 655.57 1001.47 731.213 958.95 776.236C909.985 828.081 822.822 795.667 819.761 724.475C817.439 670.452 865.361 630.694 918.694 642.398ZM1277.22 641.854C1347.18 655.882 1364.75 749.228 1304.82 788.508C1261 817.23 1200.63 796.364 1184.18 746.812C1164.48 687.486 1215.85 629.548 1277.22 641.854ZM168.286 658.601C117.111 669.393 98.6618 729.099 135.202 765.666C174.54 805.033 242.392 776.713 242.392 720.927C242.392 682.291 205.014 650.854 168.286 658.601ZM526.931 659.109C480.091 669.586 460.66 725.368 491.311 761.361C527.264 803.58 595.077 783.363 602.508 728.211C608.104 686.673 567.929 649.939 526.931 659.109ZM889.221 658.601C838.046 669.393 819.597 729.099 856.136 765.666C895.475 805.033 963.327 776.713 963.327 720.927C963.327 682.291 925.949 650.854 889.221 658.601ZM1247.87 659.109C1201.03 669.586 1181.59 725.368 1212.25 761.361C1248.2 803.58 1316.01 783.363 1323.44 728.211C1329.04 686.673 1288.86 649.939 1247.87 659.109ZM186.309 676.679C210.03 680.373 227.506 704.206 223.557 727.477C216.142 771.192 158.714 779.753 139.031 740.078L135.202 732.357V720.927V709.496L139.031 701.775C148.139 683.417 166.612 673.61 186.309 676.679ZM548.57 677.117C562.59 680.083 573.524 688.652 580.034 701.775L583.864 709.496V720.927V732.357L580.034 740.078C560.351 779.753 502.924 771.192 495.508 727.477C490.435 697.582 518.665 670.789 548.57 677.117ZM907.244 676.679C930.965 680.373 948.44 704.206 944.492 727.477C937.076 771.192 879.649 779.753 859.966 740.078L856.136 732.357V720.927V709.496L859.966 701.775C869.073 683.417 887.547 673.61 907.244 676.679ZM1274.49 678.389C1299.95 686.304 1312.78 716.261 1300.94 740.134C1287.01 768.21 1251 774.376 1229.02 752.445C1196.12 719.614 1229.94 664.539 1274.49 678.389ZM83.0988 696.555C63.9791 768.341 131.43 835.332 204.231 816.865C207.807 815.958 210.732 815.294 210.732 815.39C210.732 816.942 200.311 835.681 199.184 836.155C195.545 837.685 168.818 837.709 160.077 836.19C102.653 826.212 62.8077 778.749 62.9334 720.475C62.9796 699.16 62.4115 700.429 74.6005 694.428C86.3896 688.626 85.2851 688.349 83.0988 696.555ZM443.766 695.793C425.363 769.296 490.967 835.37 564.125 817.015C571.618 815.134 571.561 814.858 566.018 826.096C560.262 837.767 562.032 837.052 539.088 836.969C481.363 836.76 435.825 798.662 424.546 741.143C422.841 732.447 422.477 711.101 423.91 703.759L424.703 699.693L434.632 694.689C446.349 688.785 445.545 688.688 443.766 695.793ZM804.034 696.555C784.914 768.341 852.364 835.332 925.166 816.865C928.742 815.958 931.667 815.294 931.667 815.39C931.667 816.942 921.246 835.681 920.119 836.155C916.48 837.685 889.753 837.709 881.012 836.19C823.588 826.212 783.743 778.749 783.868 720.475C783.914 699.16 783.346 700.429 795.535 694.428C807.325 688.626 806.22 688.349 804.034 696.555ZM1164.7 695.793C1146.29 769.348 1211.81 835.272 1285.16 816.981C1292.54 815.14 1292.49 814.873 1286.95 826.096C1281.2 837.767 1282.97 837.052 1260.02 836.969C1191.17 836.719 1137.16 777.88 1144.18 710.762C1145.43 698.834 1144.4 700.237 1156.14 694.377C1167.22 688.842 1166.47 688.719 1164.7 695.793ZM169.21 695.789C163.337 698.042 157.043 704.016 154.505 709.749C142.414 737.052 176.988 760.982 198.135 739.947C218.928 719.266 196.654 685.262 169.21 695.789ZM530.495 695.417C520.516 698.695 512.856 709.773 512.856 720.927C512.856 746.219 545.213 757.68 560.846 737.924C577.844 716.445 556.687 686.814 530.495 695.417ZM890.145 695.789C884.272 698.042 877.978 704.016 875.44 709.749C863.349 737.052 897.923 760.982 919.07 739.947C939.862 719.266 917.589 685.262 890.145 695.789ZM1251.43 695.417C1241.45 698.695 1233.79 709.773 1233.79 720.927C1233.79 746.219 1266.15 757.68 1281.78 737.924C1298.78 716.445 1277.62 686.814 1251.43 695.417ZM44.56 723.863C46.7309 799.3 104.392 855.586 179.577 855.657L194.1 855.67L192.14 864.423L190.181 873.175L174.903 873.064C94.4339 872.481 29.5669 807.5 26.4643 724.366L25.9351 710.185L28.1042 709.739C29.2964 709.493 32.7148 708.697 35.6998 707.971C44.854 705.742 43.9938 704.199 44.56 723.863ZM404.809 721.153C405.055 796.607 464.154 855.51 539.766 855.662C547.851 855.679 554.463 855.966 554.46 856.301C554.457 856.636 554.08 858.334 553.622 860.073C553.164 861.813 552.311 865.631 551.727 868.56L550.665 873.883L535.153 873.375C453.514 870.696 389.663 807.1 387.355 726.167L386.899 710.174L389.046 709.683C390.226 709.414 393.634 708.625 396.62 707.931C399.605 707.238 402.657 706.625 403.404 706.57C404.556 706.485 404.768 708.679 404.809 721.153ZM765.495 723.863C767.666 799.3 825.327 855.586 900.511 855.657L915.035 855.67L913.075 864.423L911.116 873.175L895.838 873.064C813.794 872.469 747.213 803.683 747.144 719.447L747.137 710.287L754.599 708.484C758.704 707.493 762.721 706.633 763.528 706.576C764.816 706.482 765.054 708.575 765.495 723.863ZM1125.74 721.153C1125.99 796.607 1185.09 855.51 1260.7 855.662C1268.79 855.679 1275.4 855.966 1275.39 856.301C1275.39 856.636 1275.01 858.334 1274.56 860.073C1274.1 861.813 1273.25 865.631 1272.66 868.56L1271.6 873.883L1256.09 873.375C1174.45 870.696 1110.6 807.1 1108.29 726.167L1107.83 710.174L1109.98 709.683C1111.16 709.414 1114.57 708.625 1117.55 707.931C1120.54 707.238 1123.59 706.625 1124.34 706.57C1125.49 706.485 1125.7 708.679 1125.74 721.153ZM185.631 715.517C188.781 718.972 188.851 722.629 185.833 726.212C180.305 732.774 170.932 729.329 170.932 720.735C170.932 712.497 179.955 709.294 185.631 715.517ZM368.578 720.927V729.962H359.533H350.487V720.927V711.891H359.533H368.578V720.927ZM543.629 713.255C551.528 717.336 548.809 729.47 539.996 729.47C531.816 729.47 528.227 720.752 534.022 714.963C537.403 711.587 539.632 711.191 543.629 713.255ZM729.046 720.927V729.962H720H710.954V720.927V711.891H720H729.046V720.927ZM906.566 715.517C910.073 719.363 909.885 722.987 905.978 726.89C900.166 732.695 891.867 729.075 891.867 720.735C891.867 712.497 900.89 709.294 906.566 715.517ZM1089.51 720.927V729.962H1080.47H1071.42V720.927V711.891H1080.47H1089.51V720.927ZM1264.56 713.255C1272.46 717.336 1269.74 729.47 1260.93 729.47C1252.75 729.47 1249.16 720.752 1254.96 714.963C1258.34 711.587 1260.57 711.191 1264.56 713.255ZM371.771 754.81C372.568 758.288 373.492 762.197 373.825 763.496L374.431 765.857L356.579 766.354C280.776 768.467 222.475 829.097 224.441 903.773L224.753 915.642L215.959 913.858L207.164 912.076L206.542 907.985C205.699 902.445 207.62 879.568 209.767 869.561C224.972 798.717 288.589 747.371 359.953 748.344L370.324 748.485L371.771 754.81ZM730.572 749.163C731.217 750.165 732.011 753.34 734.041 763.049L734.629 765.867L717.139 766.37C641.625 768.542 585.18 826.223 585.156 901.241L585.152 915.755L576.367 913.791L567.582 911.829L567.693 896.568C568.236 821.841 626.933 757.755 702.813 749.046C713.822 747.783 729.725 747.85 730.572 749.163ZM1092.71 754.81C1093.5 758.288 1094.43 762.197 1094.76 763.496L1095.37 765.857L1077.51 766.354C1002.72 768.439 945.963 825.925 945.737 899.83L945.688 915.642L936.894 913.858L928.099 912.076L927.477 907.985C926.634 902.445 928.555 879.568 930.702 869.561C945.907 798.717 1009.52 747.371 1080.89 748.344L1091.26 748.485L1092.71 754.81ZM378.981 785.61C380.978 786.122 391.631 805.271 390.53 806.371C390.383 806.518 387.418 805.777 383.943 804.723C374.043 801.721 345.512 801.815 334.657 804.886C298.726 815.051 272.939 840.831 263.438 876.087C260.138 888.337 259.93 913.336 263.037 924.601C265.459 933.387 266.385 933.09 254.604 927.294C243.066 921.617 243.695 922.74 242.752 906.155C239.465 848.389 282.867 794.968 340.762 785.52C348.63 784.236 373.846 784.295 378.981 785.61ZM739.631 785.685C742.221 786.669 752.561 807.163 750.081 806.4C734.996 801.754 709.486 801 695.597 804.791C641.719 819.492 610.377 872.459 623.955 925.864C624.862 929.435 625.527 932.358 625.431 932.358C623.877 932.358 605.117 921.948 604.643 920.822C603.111 917.187 603.087 890.49 604.608 881.759C613.389 831.332 653.608 792.267 704.17 785.052C710.604 784.133 736.775 784.601 739.631 785.685ZM1099.92 785.61C1101.91 786.122 1112.57 805.271 1111.46 806.371C1111.32 806.518 1108.35 805.777 1104.88 804.723C1096.09 802.057 1066.48 801.835 1057.45 804.367C1019.84 814.91 994.034 840.221 984.387 876.033C981.072 888.338 980.858 913.311 983.972 924.601C986.394 933.387 987.319 933.09 975.538 927.294C964.001 921.617 964.63 922.74 963.687 906.155C960.4 848.389 1003.8 794.968 1061.7 785.52C1069.56 784.236 1094.78 784.295 1099.92 785.61ZM373.161 821.267C445.333 834.036 464.859 928.299 403.666 968.53C351.916 1002.55 282.316 967.263 278.886 905.26C276.043 853.843 322.639 812.328 373.161 821.267ZM741.5 822.995C802.429 841.103 821.122 916.498 775.371 959.61C724.059 1007.96 639.409 971.627 639.51 901.295C639.568 860.7 666.471 828.81 707.336 820.894C713.312 819.736 735.029 821.073 741.5 822.995ZM1094.1 821.267C1166.28 834.038 1185.8 928.293 1124.6 968.53C1072.85 1002.55 1003.25 967.263 999.821 905.26C996.978 853.843 1043.57 812.328 1094.1 821.267ZM-0.934872 846.783V856.212L5.0497 856.692C17.8637 857.719 33.1363 868.606 39.2367 881.06C52.5482 908.238 35.8997 940.081 5.72993 945.145L-0.934872 946.263V955.122V963.982H2.73131C18.2599 963.982 37.7568 953.872 48.3782 940.312C79.6823 900.349 55.336 843.857 4.26635 837.955L-0.934872 837.355V846.783ZM350.385 838.331C289.67 847.957 276.546 930.212 331.411 957.258C385.391 983.869 442.472 927.185 416.082 873.175C404.261 848.983 376.4 834.207 350.385 838.331ZM710.734 838.41C662.686 845.952 640.665 901.986 670.687 940.312C698.949 976.392 757.193 969.878 776.909 928.432C798.521 883 760.052 830.668 710.734 838.41ZM1071.32 838.331C1010.6 847.957 997.481 930.212 1052.35 957.258C1106.38 983.895 1163.42 927.245 1137.02 873.175C1125.2 848.986 1097.34 834.207 1071.32 838.331ZM1431.67 838.465C1390 844.562 1365.83 890.192 1384.03 928.432C1393.5 948.345 1416.92 963.982 1437.27 963.982H1440.93V955.122V946.263L1434.27 945.145C1404.1 940.081 1387.45 908.238 1400.76 881.06C1406.86 868.606 1422.14 857.719 1434.95 856.692L1440.93 856.212V846.848C1440.93 836.185 1441.81 836.981 1431.67 838.465ZM372.954 858.287C405.19 868.233 414.905 909.581 390.505 932.985C360.713 961.56 312.349 938.878 314.996 897.571C316.81 869.242 345.479 849.81 372.954 858.287ZM739.177 860.739C778.892 880.397 770.32 937.761 726.558 945.168C697.056 950.163 670.026 922.246 676.005 892.956C681.982 863.682 713.08 847.821 739.177 860.739ZM1093.89 858.287C1126.13 868.233 1135.84 909.581 1111.44 932.985C1081.65 961.56 1033.28 938.878 1035.93 897.571C1037.75 869.242 1066.41 849.81 1093.89 858.287ZM475.212 883.189C476.51 888.594 476.358 912.915 474.978 920.611C464.245 980.449 408.429 1023.37 349.246 1017.3C343.461 1016.71 338.578 1016.07 338.394 1015.9C337.687 1015.21 328.44 996.094 328.692 995.842C328.839 995.696 332.581 996.482 337.009 997.589C382.475 1008.96 434.588 981.947 451.451 938.267C458.733 919.405 460.558 895.566 456.077 877.847C454.967 873.46 454.059 869.777 454.059 869.664C454.059 869.55 458.627 871.751 464.21 874.554C473.943 879.44 474.397 879.796 475.212 883.189ZM1196.15 883.189C1197.45 888.594 1197.29 912.915 1195.91 920.611C1185.18 980.449 1129.36 1023.37 1070.18 1017.3C1064.4 1016.71 1059.51 1016.07 1059.33 1015.9C1058.62 1015.21 1049.38 996.094 1049.63 995.842C1049.77 995.696 1053.52 996.482 1057.94 997.589C1103.41 1008.96 1155.52 981.947 1172.39 938.267C1179.67 919.405 1181.49 895.566 1177.01 877.847C1175.9 873.46 1174.99 869.777 1174.99 869.664C1174.99 869.55 1179.56 871.751 1185.15 874.554C1194.88 879.44 1195.33 879.796 1196.15 883.189ZM825.747 874.954C836.896 880.397 836.255 878.757 836.172 901.637C835.963 959.159 797.471 1005.13 740.353 1016.07C731.574 1017.75 710.235 1018.09 702.813 1016.67L698.743 1015.89L693.634 1005.66C689.085 996.551 688.737 995.479 690.468 995.868C691.536 996.109 695.464 997.028 699.195 997.911C766.568 1013.85 832.571 948.969 817.352 881.759C814.705 870.071 814.658 869.753 815.627 870.117C816.134 870.308 820.688 872.485 825.747 874.954ZM-0.934872 882.885V892.375L1.77791 892.918C9.83211 894.527 8.68694 909.769 0.512426 909.769C-0.717777 909.769 -0.934872 911.124 -0.934872 918.804V927.84H1.6178C10.4355 927.84 21.7361 919.035 24.6552 909.891C29.9125 893.419 19.7651 876.702 2.87152 874.004L-0.934872 873.395V882.885ZM352.296 874.837C322.085 884.833 327.944 927.388 359.533 927.388C394.318 927.388 395.713 876.372 360.992 873.988C358.199 873.796 354.286 874.178 352.296 874.837ZM711.399 875.195C692.085 882.102 686.641 905.374 700.968 919.775C721.493 940.404 755.482 918.563 745.273 891.307C740.295 878.017 724.507 870.508 711.399 875.195ZM1073.23 874.837C1043.02 884.833 1048.88 927.388 1080.47 927.388C1115.25 927.388 1116.65 876.372 1081.93 873.988C1079.13 873.796 1075.22 874.178 1073.23 874.837ZM1432.33 875.25C1417.91 880.233 1410.62 895.092 1415.34 909.891C1418.26 919.035 1429.56 927.84 1438.38 927.84H1440.93V918.804C1440.93 911.124 1440.72 909.769 1439.49 909.769C1431.31 909.769 1430.17 894.527 1438.22 892.918L1440.93 892.375V883.001C1440.93 872.239 1440.97 872.269 1432.33 875.25ZM504.897 888.541L511.864 890.052L512.472 894.101C513.321 899.748 512.123 916.497 510.041 928.12C496.748 1002.32 428.515 1057.2 353.995 1053.62L348.457 1053.35L346.919 1045.62C346.073 1041.36 345.202 1037.41 344.984 1036.85C344.697 1036.1 348.762 1035.81 359.749 1035.78C434.929 1035.61 493.905 977.069 494.24 902.276C494.31 886.681 494.366 886.211 496.121 886.613C497.116 886.842 501.066 887.709 504.897 888.541ZM860.981 887.542C863.789 888.239 867.671 889.081 869.608 889.414L873.129 890.021L872.618 905.542C870.125 981.374 815.391 1041.83 739.5 1052.59C733.139 1053.49 710.187 1053.87 709.405 1053.09C708.965 1052.65 705.591 1038.32 705.551 1036.72C705.536 1036.15 711.046 1035.8 720.226 1035.77C795.788 1035.52 854.774 976.451 854.847 900.959C854.855 892.884 855.09 886.276 855.368 886.276C855.647 886.276 858.173 886.847 860.981 887.542ZM1225.83 888.541L1232.8 890.052L1233.41 894.101C1234.26 899.748 1233.06 916.497 1230.98 928.12C1217.69 1002.3 1149.43 1057.2 1074.93 1053.62L1069.39 1053.35L1067.85 1045.62C1067.01 1041.36 1066.14 1037.41 1065.92 1036.85C1065.63 1036.1 1069.7 1035.81 1080.68 1035.78C1157.3 1035.61 1217.67 973.626 1215.56 897.302C1215.26 886.578 1215.31 886.206 1217.06 886.61C1218.05 886.84 1222 887.709 1225.83 888.541ZM188.118 900.792V909.769H179.073H170.027V900.792V891.815H179.073H188.118V900.792ZM549.038 900.768V909.769H539.992H530.947V900.778V891.787L539.992 891.776L549.038 891.766V900.768ZM909.053 900.778V909.769H900.008H890.962V900.768V891.766L900.008 891.776L909.053 891.787V900.778ZM1269.97 900.768V909.769H1260.93H1251.88V900.778V891.787L1260.93 891.776L1269.97 891.766V900.768ZM365.695 895.136C371.13 900.802 367.43 909.317 359.533 909.317C356.023 909.317 354.935 908.887 353.122 906.782C348.169 901.031 351.979 892.601 359.533 892.601C362.441 892.601 363.801 893.161 365.695 895.136ZM724.573 893.532C731.824 897.408 728.343 909.769 720 909.769C716.562 909.769 710.954 904.756 710.954 901.682C710.954 894.88 718.57 890.323 724.573 893.532ZM1086.63 895.136C1092.06 900.802 1088.37 909.317 1080.47 909.317C1076.96 909.317 1075.87 908.887 1074.06 906.782C1069.1 901.031 1072.91 892.601 1080.47 892.601C1083.38 892.601 1084.74 893.161 1086.63 895.136ZM164.154 1019.65C137.94 1025.98 118.397 1049.44 116.135 1077.3L115.505 1085.06H125.127H134.749V1079.28C134.749 1062.65 146.475 1045.9 162.688 1039.37C191.377 1027.83 224.191 1049.88 224.287 1080.77L224.301 1085.06H233.346H242.392L242.377 1079.41C242.267 1040.33 202.946 1010.29 164.154 1019.65ZM525.519 1019.48C497.987 1025.75 476.765 1051.8 476.689 1079.41L476.673 1085.06H485.719H494.764L494.778 1080.77C494.874 1049.88 527.688 1027.83 556.378 1039.37C572.59 1045.9 584.316 1062.65 584.316 1079.28V1085.06H593.939H603.56L602.93 1077.3C599.744 1038.07 563.318 1010.87 525.519 1019.48ZM885.089 1019.65C858.875 1025.98 839.332 1049.44 837.07 1077.3L836.44 1085.06H846.061H855.684V1079.28C855.684 1062.65 867.41 1045.9 883.622 1039.37C912.312 1027.83 945.126 1049.88 945.222 1080.77L945.236 1085.06H954.281H963.327L963.311 1079.41C963.202 1040.33 923.881 1010.29 885.089 1019.65ZM1246.45 1019.48C1218.92 1025.75 1197.7 1051.8 1197.62 1079.41L1197.61 1085.06H1206.65H1215.7L1215.71 1080.77C1215.81 1049.88 1248.62 1027.83 1277.31 1039.37C1293.53 1045.9 1305.25 1062.65 1305.25 1079.28V1085.06H1314.87H1324.5L1323.86 1077.3C1320.68 1038.07 1284.25 1010.87 1246.45 1019.48ZM167.766 1056.5C158.965 1060.66 153.105 1069.4 152.166 1079.76L151.684 1085.06H161.308H170.932V1081.27C170.932 1073.45 179.248 1069.54 185.128 1074.59C187.223 1076.39 187.666 1077.49 187.666 1080.91V1085.06H197.059H206.453L206.014 1078.96C204.664 1060.16 184.733 1048.46 167.766 1056.5ZM527.51 1057.1C518.503 1061.6 513.786 1068.73 513.051 1078.96L512.612 1085.06H522.006H531.399V1080.91C531.399 1077.49 531.842 1076.39 533.937 1074.59C539.817 1069.54 548.133 1073.45 548.133 1081.27V1085.06H557.757H567.381L566.899 1079.76C565.075 1059.66 545.24 1048.25 527.51 1057.1ZM888.701 1056.5C879.9 1060.66 874.04 1069.4 873.101 1079.76L872.619 1085.06H882.243H891.867V1081.27C891.867 1073.45 900.183 1069.54 906.063 1074.59C908.158 1076.39 908.601 1077.49 908.601 1080.91V1085.06H917.994H927.388L926.949 1078.96C925.599 1060.16 905.668 1048.46 888.701 1056.5ZM1248.44 1057.1C1239.44 1061.6 1234.72 1068.73 1233.99 1078.96L1233.55 1085.06H1242.94H1252.33V1080.91C1252.33 1077.49 1252.78 1076.39 1254.87 1074.59C1260.75 1069.54 1269.07 1073.45 1269.07 1081.27V1085.06H1278.69H1288.32L1287.83 1079.76C1286.01 1059.66 1266.17 1048.25 1248.44 1057.1Z" fill="#000C24"/>
</svg>
