<svg width="314" height="210" viewBox="0 0 314 210" fill="none" xmlns="http://www.w3.org/2000/svg">
<path d="M255.788 203.324C257.077 197.556 253.181 193.484 250.927 188.915C250.652 188.347 249.221 188.361 248.119 188.042L246.444 182.377L243.715 184.237C242.726 181.471 242.202 181.628 237.102 186.618C238.826 179.09 238.331 177.747 234.004 177.965C232.458 176.235 236.591 173.811 233.24 172.274C229.591 170.61 229.644 174.782 227.153 175.558C228.212 173.305 229.27 171.031 230.328 168.798C231.134 167.522 231.872 166.206 232.54 164.853C232.894 163.932 233.106 162.317 232.618 161.854C231.446 160.754 230.046 159.538 228.05 160.927C225.46 162.742 222.611 164.156 219.599 165.121C222.087 162.924 224.711 160.851 226.982 158.488C227.898 157.512 228.138 155.957 228.681 154.661L224.603 154.556C225.628 153.582 226.724 152.61 227.859 151.639C228.268 151.309 229.097 151.36 229.336 150.986C232.244 146.46 235.946 142.154 237.694 137.197C239.186 132.874 235.685 128.562 231.248 126.477C228.075 124.985 230.023 121.984 229.421 119.718C229.324 118.592 229.401 117.457 229.648 116.353C223.816 116.733 221.736 121.351 218.487 124.789C219.791 120.761 225.454 117.225 218.984 113.648L207.523 108.071L206.28 98.4757C207.601 96.8892 209.465 94.4164 211.602 92.2306C212.26 91.5473 213.689 91.6141 214.757 91.3115C215.81 90.9392 216.895 90.6658 217.999 90.4947C219.061 90.422 221.057 90.6334 221.09 90.8943C221.448 94.0646 223.642 93.961 225.298 93.7536C226.241 95.9786 226.697 98.8612 228.053 99.4163C229.409 99.9714 232.014 98.648 233.642 97.5595C234.457 96.9903 234.327 95.0563 234.53 94.1713L253.537 80.1357L254.061 80.3993L252.547 83.2613L252.823 84.1887C256.346 83.3291 259.869 82.4794 263.01 81.72C263.374 82.7297 263.455 84.2623 264.136 84.61C267.285 86.2315 270.205 85.1163 272.778 83.1018L275.304 87.5283L274.259 89.292C275.75 89.2504 276.751 89.2261 277.752 89.2119C276.131 92.3212 277.411 95.055 281.929 97.9222C280.021 100.164 281.07 101.001 283.518 101.494C286.801 102.169 287.749 104.604 285.782 107.174C283.816 109.745 284.93 111.534 286.456 113.654C287.545 115.449 288.542 117.297 289.444 119.193C290.077 120.269 290.922 121.231 291.636 122.25C292.35 123.269 292.906 124.213 293.561 125.211L292.54 125.995L289.599 123.678C288.746 122.996 287.907 121.774 287.047 121.762C285.598 121.725 284.147 122.507 282.696 122.94C283.474 123.811 284.082 125.057 285.05 125.512C289.084 127.366 293.224 128.983 297.123 131.384C294.888 130.767 292.6 130.268 290.44 129.482C287.815 128.474 286.138 129.111 285.488 131.835C284.834 134.262 284.313 136.723 283.927 139.207C283.659 140.815 283.774 142.463 284.264 144.018C285.406 147.048 287.115 149.843 288.319 152.815C288.601 153.512 287.974 154.537 287.982 155.407C287.952 156.587 287.741 158.162 288.383 158.868C293.09 164.081 294.142 168.29 291.218 173.496C295.346 175.173 295.611 178.861 295.874 183.399C294.915 181.947 293.833 180.58 292.638 179.315C291.7 178.519 290.529 178.05 289.301 177.978C288.842 177.967 288.358 179.665 287.061 180.702C287.113 179.148 287.059 177.592 286.9 176.046C286.613 175.206 286.176 174.426 285.609 173.742C284.21 174.68 282.874 175.708 281.609 176.82C281.106 177.297 281.392 178.625 280.89 179.082C277.02 182.554 278.529 186.504 279.596 190.503C280.009 192.433 280.313 194.384 280.506 196.348C278.903 196.047 277.52 195.781 276.116 195.525C272.65 187.153 272.182 186.681 268.895 188.457L266.115 184.554C265.378 185.955 264.474 186.903 264.459 187.872C264.409 189.822 263.476 190.278 261.815 190.305C257.601 190.397 255.557 193.265 256.358 197.517C256.709 199.427 258.673 201.638 255.779 203.274L255.788 203.324ZM233.609 99.2593C231.529 100.042 229.501 100.955 227.536 101.994C227.13 102.234 227.198 103.866 227.559 104.615C227.825 105.172 229.228 105.819 229.595 105.588C231.638 104.3 234.273 103.368 233.609 99.2593Z" fill="white"/>
<path d="M105.167 188.594C106.695 190.634 105.632 191.927 103.742 192.658C101.197 193.593 98.5759 194.396 95.9833 195.239C89.8906 197.21 83.7946 199.177 77.6954 201.141C77.4229 201.234 77.0756 201.125 76.5215 200.5L100.411 189.952L100.239 189.227L95.7609 189.112L95.6651 188.559C99.4686 187.307 103.236 185.913 107.093 184.912C108.039 184.666 109.312 185.759 110.452 186.169C111.049 186.469 111.714 186.607 112.382 186.569C117.021 185.478 121.653 184.326 125.234 180.837C125.468 180.608 125.754 180.437 126.067 180.339C130.24 179.096 134.441 177.963 138.576 176.659C141.53 175.769 144.411 174.652 147.194 173.32C147.732 173.044 147.463 171.036 147.444 169.835C147.464 169.046 146.819 168.069 147.114 167.516C148.163 165.602 149.119 163.446 150.725 162.087C153.68 159.582 152.293 157.886 150.631 156.413L151.121 152.114L150.346 151.934C152.896 149.229 155.633 146.678 157.889 143.755C158.674 142.775 158.284 140.815 158.377 139.947C160.092 137.83 161.585 135.778 163.303 133.932C165.752 131.304 169.175 131.202 172.383 130.954C174.178 130.953 175.971 131.096 177.744 131.382C178.042 131.369 178.339 131.429 178.609 131.555C181.437 133.628 184.245 135.701 187.012 137.773C184.354 138.855 184.524 140.41 187.145 142.348C188.215 143.136 188.767 144.59 189.691 145.614C191.637 147.755 196.031 148.038 198.781 146.919C200.206 146.335 202.113 146.895 203.902 146.941L202.868 142.012C205.176 143.282 206.921 143.887 208.202 145.031C210.764 147.327 210.737 150.328 210.382 153.63C209.892 158.288 210.31 163.021 213.543 166.855C214.271 167.714 215.653 168.02 216.285 168.356C214.919 171.398 213.724 174.513 212.704 177.687C212.017 180.25 213.309 182.154 216.034 183.145C217.59 183.715 218.898 184.989 220.314 185.946L219.812 187.183C217.438 186.912 215.068 186.501 212.689 186.41C211.543 186.53 210.418 186.807 209.347 187.234C209.786 188.436 209.896 189.989 210.726 190.781C213.655 193.587 217.123 195.637 218.134 200.264C218.654 202.619 221.387 204.48 223.221 206.687C221.521 209.785 222.555 212.362 224.939 214.934C229.154 219.474 233.112 224.238 237.163 228.934C237.41 229.397 237.589 229.893 237.695 230.408C234.556 231.497 233.412 229.297 231.948 227.489C226.745 220.953 221.593 214.358 216.103 208.075C214.365 206.029 211.674 204.86 209.33 203.419C208.927 203.168 208.135 203.608 207.514 203.652C206.371 203.743 204.917 204.266 204.12 203.755C200.488 201.471 197.702 203.59 195.767 204.54L192.645 211.572C192.053 210.345 191.374 209.161 190.616 208.029C190.005 207.253 189.084 206.119 188.383 206.171C187.272 206.422 186.284 207.05 185.586 207.949C184.982 208.736 184.612 209.676 184.516 210.663C184.11 213.983 182.5 213.972 180.013 212.638C178.787 212.021 177.371 211.899 176.057 212.297C174.744 212.695 173.633 213.583 172.956 214.777C172.318 215.841 170.754 217.551 170.438 217.383C168.8 216.532 167.337 215.382 166.124 213.991C164.584 212.015 163.151 209.958 161.831 207.828L159.41 212.497C158.913 211.624 158.604 211.156 158.367 210.66C157.676 209.132 156.961 208.163 155.288 209.79C153.77 211.262 152.168 211.341 151.74 208.899C151.112 205.321 150.766 201.681 150.379 198.06C150.336 197.06 150.362 196.058 150.456 195.061C150.012 194.81 149.818 194.595 149.647 194.62C143.132 195.523 142.742 194.743 144.859 188.265C145.565 186.112 145.477 182.919 144.322 181.139C142.86 178.88 140.129 177.7 136.823 179.075C130.513 181.704 124.118 184.16 117.632 186.234C113.782 187.355 109.621 187.748 105.167 188.594Z" fill="white"/>
<path d="M106.753 81.1487C102.604 77.5608 101.707 77.4377 98.8611 79.9453L98.5743 77.4871L92.3286 70.6341C95.3445 68.1108 93.4654 65.3316 91.8046 62.6179C92.8238 61.3535 93.9519 60.1809 95.1759 59.1135C96.8557 57.9112 98.8645 57.2545 100.93 57.2325C102.996 57.2105 105.018 57.8243 106.723 58.9906C108.553 60.1781 109.925 60.9036 112.194 59.0114C114.791 56.8475 118.281 55.727 121.324 54.0747C125.169 51.983 128.719 53.6049 131.279 55.9515C132.891 57.4435 132.806 60.7524 133.73 64.1273C137.43 66.5133 143.952 65.3307 146.062 61.0736C146.242 64.9895 152.316 66.8265 159.656 64.9847C158.423 67.4238 158.078 69.5656 161.141 70.6648C161.458 70.773 161.537 71.5753 161.695 72.0596C162.441 74.648 163.341 77.1898 164.39 79.6714C163.907 80.9394 161.761 82.3047 164.078 83.2546L161.027 91.4088C156.959 90.8839 158.632 95.4485 156.504 97.2943C152.372 97.328 151.018 98.2135 150.074 101.85L147.839 100.102L147.462 103.094C144.996 102.49 142.502 101.445 140.073 101.393C136.867 101.328 133.701 100.663 130.74 99.4321C129.136 98.8724 127.759 97.8043 126.817 96.3901C125.602 94.6283 124.384 95.3271 123.448 96.7235C122.241 98.503 121.163 100.366 119.818 102.082C120.175 97.9597 124.94 95.4915 124.117 90.5287C122.671 90.7315 121.447 90.9001 120.433 91.044C121.493 88.7305 122.793 86.4032 123.617 83.9236C124.341 81.8416 121.552 79.419 119.185 79.6782C117.74 79.831 116.005 79.2362 114.859 79.8369C112.083 81.2159 108.857 77.1316 106.753 81.1487Z" fill="white"/>
<path d="M234.102 38.5017C230.084 39.1485 228.255 41.0321 229.69 43.5999C227.928 43.2344 226.011 42.3448 224.283 42.6104C222.747 42.8509 221.407 44.377 220.429 45.042C215.457 43.9137 210.712 42.8813 205.997 41.8396L201.763 35.7286C202.72 33.5225 201.809 30.0479 200.514 29.4444L201.069 21.8862L200.074 21.6605L202.544 21.3339C203.133 16.6976 207.316 15.4548 209.261 13.7343C212.553 13.3389 214.886 13.2389 217.139 12.7567C219.694 12.2022 223.548 14.4521 225.349 15.969C229.097 19.2065 229.643 25.5727 235.758 26.2403C234.74 26.9343 233.408 27.4002 233.239 28.1261C233.07 28.852 234.124 29.8694 234.51 30.8097C234.915 31.5773 235.132 32.4294 235.146 33.2969C234.888 35.0486 234.539 36.7859 234.102 38.5017Z" fill="white"/>
<path d="M24.0827 35.7864L23.0846 38.0314C25.0646 38.8327 26.877 39.5395 28.0358 39.9895L29.8244 43.5667C29.8652 45.4168 30.0688 47.2598 30.4328 49.0742C31.2326 51.8157 28.5417 53.367 28.469 55.8059C28.3187 56.9584 27.8887 58.0567 27.2162 59.0047C26.8925 59.5366 26.0376 59.7146 25.5356 60.1719C23.2238 62.5226 20.3234 64.2098 17.1371 65.0574C12.434 66.2867 9.07191 64.3796 6.03539 62.6509C2.37808 60.5561 0.684193 56.4111 0.384762 51.7219C0.0587254 46.5117 3.6899 43.4041 5.70348 39.4046C7.39302 35.947 11.64 36.8966 14.0138 34.4468C14.6098 33.832 16.931 34.9821 18.4759 35.2019C20.1599 35.4553 21.8975 35.5701 24.0827 35.7864Z" fill="white"/>
<path d="M176.114 113.874C174.773 116.05 173.279 118.128 171.642 120.091C170.326 121.488 168.404 122.299 166.756 123.377C165.341 124.341 163.604 124.976 162.6 126.271C161.174 128.035 160.214 128.41 158.831 125.824C158.381 128.893 156.489 128.584 154.769 128.17C152.78 127.709 152.063 126.43 152.188 124.292C152.443 119.797 151.641 119.116 147.615 119.663C148.951 115.956 147.868 112.557 146.879 109.411C148.936 107.213 151.181 104.71 153.6 102.441C154.421 101.662 155.834 101.549 156.879 100.975C161.517 98.4037 166.08 98.7312 170.061 102.235C171.294 103.317 173.047 102.832 174.236 104.813C175.511 106.987 177.655 108.392 176.478 111.393C176.189 112.126 176.771 113.201 176.958 114.116L176.114 113.874Z" fill="white"/>
<path d="M81.0841 46.1766C79.005 44.1724 76.6344 42.6109 75.2807 40.4053C73.6197 37.7017 74.904 34.8338 77.0473 32.7883C79.1906 30.7427 81.8071 29.7498 84.9626 31.1314C86.7132 31.9067 88.7736 31.9197 90.6395 32.4879C91.8207 32.8484 93.6172 33.3949 93.8368 34.1908C94.0295 35.6422 93.7122 37.1155 92.9392 38.3591C92.0875 40.1028 90.8309 41.6174 89.2743 42.7762C86.9875 44.1778 84.2781 44.8983 81.0841 46.1766Z" fill="white"/>
<path d="M74.25 53.6333C72.4049 51.8653 72.4941 51.5075 75.8978 50.2446C77.4732 49.665 78.9385 48.7024 80.5677 48.3642C82.0419 48.269 83.5221 48.3643 84.9719 48.6476C85.4516 49.5755 86.0746 50.422 86.8179 51.1559C89.5476 53.1468 90.1505 55.7632 89.4709 58.8468C88.7362 62.1289 86.0267 63.2396 83.2468 63.9783C81.232 64.5266 78.538 65.4276 77.0593 64.5793C75.5807 63.7309 75.4125 60.9357 74.8942 58.9217C74.5695 57.174 74.3544 55.4078 74.25 53.6333Z" fill="white"/>
<path d="M199.987 82.5584C198.475 81.059 196.764 79.1444 194.826 77.504C192.192 75.2655 192.227 71.9853 195.109 68.8084C197.292 66.4237 200.252 65.2896 203.068 66.2423C205.607 67.098 208.357 68.3091 209.012 71.9972C210.001 77.4945 208.731 79.4124 203.011 80.1155C201.807 80.2645 200.764 81.9082 199.987 82.5584Z" fill="white"/>
<path d="M206.622 48.6381C206.47 51.4451 204.271 53.6992 201.783 53.5952C199.295 53.4911 196.509 50.5885 196.561 48.189C196.612 45.7895 199.962 42.3646 202.068 42.5189C203.924 42.7067 206.679 46.4388 206.622 48.6381Z" fill="white"/>
<path d="M258.719 9.82572C257.42 9.22806 256.158 8.55426 254.939 7.80782C253.839 7.01925 252.38 6.18144 252.009 5.05151C251.638 3.92159 251.86 1.5265 252.662 1.06699C253.973 0.250468 256.748 -0.278311 257.499 0.471261C259.041 2.2289 260.087 4.36541 260.531 6.66131C260.767 7.5677 259.272 8.91967 258.719 9.82572Z" fill="white"/>
<path d="M17.2694 152.8C19.0103 150.844 19.9315 148.867 21.3841 148.394C23.2815 147.743 26.331 150.522 26.2193 152.14C26.1055 154.228 23.7045 156.567 21.8198 155.948C20.2914 155.479 19.0856 154.137 17.2694 152.8Z" fill="white"/>
<path d="M309.632 121.863C307.787 115.813 308.627 111.154 312.076 108.922C314.215 111.697 313.115 117.531 309.632 121.863Z" fill="white"/>
<path d="M62.1367 93.2446C65.3147 90.6455 67.69 88.526 70.308 86.6927C71.3625 86.1698 72.5318 85.9212 73.7078 85.97C74.2589 85.9341 75.2098 86.2987 75.33 86.682C75.4586 87.396 75.3445 88.1326 75.006 88.7743C74.7301 89.2446 74.2844 89.5911 73.7607 89.7426C70.08 90.8883 66.4613 91.9555 62.1367 93.2446Z" fill="white"/>
<path d="M123.706 193.552C122.177 196.594 117.42 198.762 112.713 198.561C116.667 196.912 118.499 192.188 123.706 193.552Z" fill="white"/>
<path d="M307.817 136.031L299.457 131.634L299.545 131.347L305.85 133.159L308.28 126.99L309.095 127.191L307.817 136.031Z" fill="white"/>
<path d="M296.385 101.785C296.925 99.9331 297.596 98.1218 298.395 96.3653C298.657 95.8719 300.035 95.9674 300.89 95.7893C300.96 96.5814 301.345 97.5616 301.02 98.1235C300.025 99.6588 298.945 101.137 297.785 102.552L296.385 101.785Z" fill="white"/>
<path d="M198.071 108.818L198.445 94.2728L199.963 94.3719L198.929 108.9L198.071 108.818Z" fill="white"/>
<path d="M299.089 174.299L300.265 165.156C303.792 168.798 301.101 171.55 299.864 174.519L299.089 174.299Z" fill="white"/>
<path d="M78.4358 21.2103C80.0185 19.9607 81.0024 18.6555 81.6488 18.8022C82.6431 19.0379 83.3517 20.2665 84.1911 21.0784C83.3923 21.7981 82.6722 22.9599 81.7778 23.117C80.8835 23.274 80.0808 22.203 78.4358 21.2103Z" fill="white"/>
<path d="M103.903 22.8062C104.861 24.4614 105.982 25.5806 105.749 26.0848C105.294 27.0734 104.096 27.7528 103.205 28.5601C102.652 27.8757 101.533 27.0666 101.647 26.5194C101.884 25.4451 102.799 24.5184 103.903 22.8062Z" fill="white"/>
<path d="M81.3665 15.7839C83.0645 14.7172 84.0538 13.5923 84.8609 13.7131C85.6681 13.8339 86.3639 15.1723 87.1135 15.9718C86.296 16.641 85.5167 17.7713 84.6549 17.8292C83.7931 17.887 82.9402 16.8247 81.3665 15.7839Z" fill="white"/>
<path d="M126.306 191.238C128.228 190.027 130.036 188.203 132.742 190.724L126.495 192.064L126.306 191.238Z" fill="white"/>
<path d="M255.788 203.314L257.549 215.364L256.346 215.483L255.788 203.314Z" fill="white"/>
<path d="M257.448 29.6495C259.305 28.6269 259.945 25.5224 262.788 26.2158L263.392 27.2317C261.576 28.2453 259.749 29.2586 257.932 30.2822L257.448 29.6495Z" fill="white"/>
</svg>
