<svg width="152" height="113" viewBox="0 0 152 113" fill="none" xmlns="http://www.w3.org/2000/svg">
<path d="M76.976 20.2411C77.8294 20.2921 78.6776 20.4092 79.513 20.5912C80.9423 20.9986 82.3716 21.0701 82.9434 19.5907C83.2507 18.8332 82.636 17.704 82.3573 16.3747C82.7861 16.3747 83.6509 16.0603 84.2869 16.3247C86.6381 17.3038 87.4814 16.3247 87.4886 13.9163C89.5254 13.7591 91.212 13.2017 91.4764 10.7647C91.5193 10.343 92.5913 9.74985 93.213 9.72127C97.8654 9.47114 98.2156 9.15668 98.3371 5.00451L100.653 6.27661L100.903 3.34651C102.461 2.63185 103.461 6.71255 105.555 4.34703C107.449 6.32664 109 6.19085 113.688 3.56805C113.216 4.34703 112.873 4.91161 112.487 5.53336C114.46 7.19852 115.232 4.56857 117.147 4.32559C113.231 8.17045 115.56 11.2078 117.383 14.5023C117.962 15.5386 117.547 17.2824 117.226 18.6116C116.861 20.0981 115.925 21.4703 115.539 22.9353C114.939 25.2222 114.603 27.5735 114.017 30.6036L111.873 28.1809C110.553 29.3231 109.303 30.5425 108.128 31.8328C107.699 32.3474 107.885 33.3693 107.835 33.7481L117.276 34.4628L117.347 34.0197C117.073 33.9337 116.808 33.8236 116.554 33.6909C116.283 33.475 116.032 33.2359 115.803 32.9763L118.069 31.6113C119.034 34.4699 118.784 38.229 122.871 38.9008C123.272 38.9651 123.743 38.5935 124.165 38.4291C126.831 40.4302 129.375 42.9458 132.955 44.3251C131.969 45.5972 130.725 46.469 132.669 47.7126C133.255 48.077 133.055 49.7065 133.22 50.7641L134.313 51.2859C134.631 50.7515 134.895 50.1865 135.099 49.5993C135.864 46.4905 138.401 44.8396 140.516 42.8243C141.66 41.738 142.517 41.6594 143.647 42.8886C144.64 43.9749 146.162 44.6181 146.998 45.7472C148.606 47.977 150.943 50.3997 151.043 52.8152C151.179 56.0598 149.085 59.1328 145.969 60.9623C143.318 62.5131 140.831 62.02 138.601 60.1119C136.571 58.3753 134.635 56.5386 132.548 54.609C133.527 57.1532 131.119 58.0394 129.768 59.6116C129.453 59.9833 129.475 60.6407 129.053 60.7051L125.165 63.0777C124.722 63.1563 123.858 63.335 122.979 63.4351C122.1 63.5351 121.006 63.8424 120.156 63.5923C118.606 63.1104 117.113 62.461 115.703 61.6556C114.91 61.2196 114.381 60.3191 113.617 59.8189C111.701 58.5682 110.901 56.5672 109.836 54.7162C109.672 54.4304 109.007 54.4232 109.236 54.4947C108.521 52.8295 108.042 51.636 107.513 50.3711L105.612 51.3216L105.055 49.7422L100.695 47.3266L97.3294 50.0495H99.5235C99.5235 52.3293 99.5235 54.5233 99.5235 56.7173C99.5968 57.3104 99.5556 57.9121 99.402 58.4896C98.623 60.1691 97.7725 61.8199 96.8363 63.4136C95.9001 65.0073 95.164 66.9869 92.9129 67.38C92.7628 67.38 92.5269 67.4657 92.4983 67.5658C91.5621 70.3101 88.6249 70.0599 86.7382 71.3749C86.3308 71.6608 85.4804 71.2963 84.7229 71.2248L83.4365 76.2275C81.7713 75.0912 79.5559 75.1269 79.5201 72.6542C78.8499 72.5525 78.1748 72.4857 77.4977 72.4541C77.4048 72.2468 77.0975 71.5107 76.7115 70.5959C74.3603 71.9395 71.7947 72.6113 71.3373 74.8839L65.4342 79.1719L63.8048 78.7573C63.0901 79.7722 62.6113 80.9799 61.7251 81.6946C59.5097 83.4813 60.6317 84.8748 61.7823 86.6258C62.7185 88.0551 63.1401 89.7845 63.7905 91.3782L62.7328 91.807L60.21 86.3542C58.7807 85.5895 57.5944 84.9249 56.4009 84.3817C55.7792 84.0959 54.8287 83.5885 54.4713 83.8314C51.87 85.5966 48.2038 85.6181 46.46 88.8341C45.8934 89.8576 45.17 90.7859 44.316 91.5855C42.9869 92.7544 42.1431 94.3783 41.9505 96.1379C41.3788 100.369 40.3211 104.535 39.392 108.709C39.1798 109.354 38.8476 109.952 38.4129 110.474C38.3486 110.567 37.634 110.388 37.6268 110.302C37.4797 109.581 37.4797 108.837 37.6268 108.116C39.0133 104.292 40.364 100.497 39.4706 96.3022C39.4335 96.0002 39.4635 95.6936 39.5587 95.4045C39.6538 95.1154 39.8117 94.8509 40.0209 94.6299C42.3007 92.5288 42.3221 89.5701 43.0439 86.8902C43.1654 86.4256 42.5723 85.7682 41.9862 85.3251C42.8152 81.5946 39.3063 81.2372 37.4553 79.472L34.9111 81.2372C35.1612 79.5935 37.248 78.2071 35.197 76.8278C33.9249 75.9702 32.5813 75.2198 30.9662 74.2336C31.3521 72.9329 30.5017 72.1253 28.4577 72.3755C28.0146 69.2309 27.1999 66.3366 24.1698 65.2289C25.0384 64.3374 25.8387 63.3818 26.5639 62.3702C26.7068 62.1344 25.9564 61.3483 25.3418 60.3835C25.7349 57.3676 25.2918 55.7096 22.3188 55.8668C23.8911 54.2731 23.7982 53.3512 21.4183 51.243C21.011 53.3298 20.6608 55.1093 20.3321 56.803H9.56929V56.6672L16.6373 55.5166C19.2458 55.0807 20.425 52.5865 19.9461 50.0138C19.6102 48.2271 19.1171 47.005 17.3233 46.9121C15.9181 46.8518 14.5141 47.0579 13.1855 47.5196C8.80461 49.0704 4.48806 50.7784 0 52.1935C1.09301 51.7183 2.16158 51.1888 3.20168 50.6069C5.6744 49.0418 8.20429 47.5196 10.4841 45.7258C11.8062 44.6895 14.4719 44.1893 15.8297 45.2541C17.9737 46.9193 18.9528 46.5548 19.646 44.0463C19.7961 43.5175 20.6179 43.0959 21.2111 42.7743C22.6404 42.0096 24.1626 41.445 25.499 40.566C26.0922 40.18 26.3066 39.2224 26.8212 38.2933L22.1687 37.8788V37.3643H25.6634C24.9834 36.1932 24.2365 35.0621 23.4265 33.9768C22.5118 32.9048 22.6333 32.183 23.8625 31.6041C25.7563 30.7037 26.5139 29.3172 26.0065 27.209C25.9064 26.7945 26.4281 26.2227 26.6711 25.7225C26.8569 25.3294 27.1999 24.9578 27.2285 24.5576C27.1712 23.5815 27.3324 22.6049 27.7002 21.699C27.2571 21.0629 26.814 20.4269 25.9636 19.2262L28.9294 19.7336C29.2224 18.0613 30.0086 16.3247 27.5501 15.5386C27.414 15.465 27.3079 15.3462 27.25 15.2027C26.4996 13.7162 25.7492 12.2226 24.8487 10.4145C26.328 11.2435 27.9217 11.8438 29.1795 12.9086C30.7446 14.1879 32.224 13.366 33.5461 12.9086C34.1965 12.6728 34.418 11.2363 34.7467 10.5217C35.6544 10.8147 36.8407 11.5294 37.9984 11.4865C39.8137 11.415 41.5717 10.9362 43.3941 11.7152C43.6657 11.8295 44.4018 11.0362 44.8234 10.5789C45.4952 9.8642 46.0884 9.09237 46.7173 8.34198C47.2747 9.34964 47.8822 10.3359 48.3538 11.3793C48.4466 11.8945 48.4466 12.4221 48.3538 12.9372C50.5907 13.0444 50.1548 14.7239 50.1191 15.6458C51.9271 17.5968 54.1069 19.0261 54.7215 20.9557C55.1074 22.1349 55.3647 23.6285 56.2222 24.236C57.3586 25.0436 58.988 25.2723 60.4387 25.4152C60.7532 25.4152 61.3392 24.1216 61.575 23.3498C62.0396 21.799 63.1687 21.7275 65.863 23.407L62.7828 25.2365C63.0187 25.8082 63.2688 26.3871 63.426 26.7516C62.7181 26.8804 62.0353 27.1217 61.4035 27.4663C61.2392 27.6092 61.6822 28.5025 61.8466 29.0457C62.4684 28.7741 63.2759 28.6597 63.6833 28.2024C64.8911 26.8731 65.9488 25.408 67.1065 23.9144C67.8855 25.1293 68.1571 27.6092 70.2582 26.9874C70.9728 29.1314 71.5874 31.0253 72.2521 32.9405C72.4522 33.5123 73.0525 34.0983 72.9667 34.5914C72.5308 37.157 74.7605 36.9141 76.0469 37.6073C76.2899 37.7359 77.0045 37.4286 77.1975 37.1284C78.1694 35.5776 78.8198 33.7481 80.0561 32.4617C80.6779 31.8114 82.2859 32.1115 83.9868 31.9186C83.8081 31.2039 83.8724 29.6102 83.1935 29.1671C82.3716 28.624 80.9209 29.0385 79.3986 29.0385C80.6707 28.2595 82.1429 27.8379 82.5289 26.9517C82.8004 26.3157 81.6856 24.9935 81.0352 24.0931C80.2943 23.1018 79.4771 22.1699 78.5911 21.3059C78.091 20.8692 77.5555 20.4748 76.9902 20.1267L76.976 20.2411Z" fill="white"/>
<path d="M108.571 67.3921C110.422 67.3921 112.223 67.3421 114.024 67.3921C116.311 67.4779 120.849 71.237 120.356 73.3166C119.898 75.2391 118.033 77.0043 116.411 78.3979C115.167 79.4699 113.745 78.7981 112.123 77.9619C108.4 76.0681 107.47 73.7311 108.986 69.9792C109.264 69.2216 108.693 68.0996 108.571 67.3921Z" fill="white"/>
<path d="M17.066 44.2943C16.2156 46.1167 15.0793 47.4031 12.7781 47.5603C11.5346 47.6461 10.334 48.4608 9.11189 48.9896C8.31862 49.3112 7.53249 49.6614 6.73922 50.0044C6.64631 49.7972 6.55341 49.5971 6.46765 49.397L16.6587 43.744L17.066 44.2943Z" fill="white"/>
<path d="M69.0148 94.006C68.4954 99.0897 67.9833 104.183 67.4783 109.285L66.5492 109.2C67.078 104.13 67.6093 99.0635 68.1429 93.9989L69.0148 94.006Z" fill="white"/>
<path d="M84.0655 104.49C83.9298 106.677 83.8726 108.871 83.601 111.036C83.5367 111.522 82.7291 111.915 82.2718 112.351C82.0502 111.758 81.5571 111.086 81.6572 110.586C82.186 108.492 82.9007 106.441 83.5439 104.383L84.0655 104.49Z" fill="white"/>
<path d="M31.0735 0.5C31.924 1.99364 32.6529 2.89411 32.8959 3.90892C32.9745 4.23767 31.7882 4.87371 31.1736 5.33824C30.5347 4.54727 30.008 3.67189 29.6085 2.73688C29.4655 2.33668 30.2803 1.64345 31.0735 0.5Z" fill="white"/>
<path d="M77.026 24.191C73.5599 24.191 70.8299 22.3758 68.057 20.6749L68.4143 19.8816L76.9902 24.2482L77.026 24.191Z" fill="white"/>
<path d="M50.7766 3.15845L49.4688 11.7344L48.6898 11.6129L50.2978 3.07983L50.7766 3.15845Z" fill="white"/>
<path d="M65.8345 24.0695L68.9504 23.0905C69.0361 23.505 69.2863 24.2339 69.1934 24.2839C68.2643 24.7556 67.2781 25.1058 66.3347 25.4989L65.8345 24.0695Z" fill="white"/>
<path d="M9.63361 65.8983L4.30225 69.7146C4.19505 69.5645 4.08071 69.4216 3.97351 69.2787L9.14764 65.2551L9.63361 65.8983Z" fill="white"/>
<path d="M19.3889 32.9384L22.4477 34.0461C21.49 34.7607 20.6968 35.5826 20.4895 35.4754C19.8338 34.9578 19.2583 34.3461 18.7815 33.6602L19.3889 32.9384Z" fill="white"/>
</svg>
