<svg width="198" height="232" viewBox="0 0 198 232" fill="none" xmlns="http://www.w3.org/2000/svg">
<path d="M139.788 204.073C141.077 198.302 137.181 194.23 134.927 189.659C134.652 189.092 133.221 189.105 132.119 188.786L130.444 183.12L127.715 184.981C126.726 182.214 126.202 182.371 121.102 187.362C122.826 179.832 122.331 178.489 118.004 178.707C116.458 176.977 120.591 174.552 117.24 173.015C113.591 171.35 113.644 175.523 111.153 176.3C112.212 174.046 113.27 171.772 114.328 169.538C115.134 168.262 115.872 166.945 116.54 165.592C116.894 164.671 117.106 163.055 116.618 162.593C115.446 161.492 114.046 160.275 112.05 161.665C109.46 163.48 106.611 164.895 103.599 165.859C106.087 163.662 108.711 161.589 110.982 159.226C111.898 158.249 112.138 156.694 112.681 155.397L108.603 155.292C109.628 154.318 110.724 153.346 111.859 152.374C112.268 152.045 113.097 152.096 113.336 151.722C116.244 147.194 119.946 142.887 121.694 137.929C123.186 133.605 119.685 129.292 115.248 127.207C112.075 125.715 114.023 122.713 113.421 120.446C113.324 119.319 113.401 118.184 113.648 117.08C107.816 117.46 105.736 122.079 102.487 125.518C103.791 121.489 109.454 117.953 102.984 114.374L91.5234 108.796L90.2799 99.1986C91.6011 97.6117 93.4654 95.1382 95.6023 92.952C96.2601 92.2685 97.6889 92.3353 98.757 92.0326C99.8101 91.6603 100.895 91.3867 101.999 91.2156C103.061 91.1429 105.057 91.3543 105.09 91.6153C105.448 94.7864 107.642 94.6828 109.298 94.4753C110.241 96.7008 110.697 99.5842 112.053 100.139C113.409 100.695 116.014 99.3709 117.642 98.2822C118.457 97.7128 118.327 95.7784 118.53 94.8931L137.537 80.8542L138.061 81.1178L136.547 83.9805L136.823 84.9081C140.346 84.0483 143.869 83.1984 147.01 82.4388C147.374 83.4488 147.455 84.9817 148.136 85.3295C151.285 86.9514 154.205 85.8359 156.778 83.821L159.304 88.2485L158.259 90.0126C159.75 89.971 160.751 89.9467 161.752 89.9325C160.131 93.0426 161.411 95.777 165.929 98.6449C164.021 100.887 165.07 101.725 167.518 102.218C170.801 102.893 171.749 105.329 169.782 107.899C167.816 110.47 168.93 112.26 170.456 114.38C171.545 116.176 172.542 118.025 173.444 119.92C174.077 120.997 174.922 121.96 175.636 122.979C176.35 123.998 176.906 124.942 177.561 125.94L176.54 126.724L173.599 124.407C172.746 123.725 171.907 122.502 171.047 122.49C169.598 122.453 168.147 123.236 166.696 123.669C167.474 124.54 168.082 125.786 169.05 126.241C173.084 128.096 177.224 129.713 181.123 132.115C178.888 131.497 176.6 130.998 174.44 130.212C171.815 129.204 170.138 129.841 169.488 132.566C168.834 134.994 168.313 137.455 167.927 139.94C167.659 141.548 167.774 143.197 168.264 144.751C169.406 147.783 171.115 150.578 172.319 153.551C172.601 154.248 171.974 155.273 171.982 156.144C171.952 157.324 171.741 158.899 172.383 159.606C177.09 164.82 178.142 169.03 175.218 174.237C179.346 175.914 179.611 179.603 179.874 184.143C178.915 182.69 177.833 181.323 176.638 180.057C175.7 179.261 174.529 178.792 173.301 178.72C172.842 178.709 172.358 180.407 171.061 181.444C171.113 179.89 171.059 178.334 170.9 176.788C170.613 175.948 170.176 175.167 169.609 174.483C168.21 175.422 166.874 176.45 165.609 177.562C165.106 178.039 165.392 179.367 164.89 179.825C161.02 183.297 162.529 187.248 163.596 191.248C164.009 193.178 164.313 195.13 164.506 197.095C162.903 196.793 161.519 196.527 160.116 196.271C156.65 187.897 156.182 187.425 152.895 189.201L150.115 185.298C149.378 186.699 148.474 187.647 148.459 188.617C148.409 190.567 147.476 191.023 145.815 191.05C141.601 191.142 139.557 194.011 140.358 198.264C140.709 200.174 142.673 202.386 139.779 204.022L139.788 204.073ZM117.609 99.9823C115.529 100.765 113.501 101.679 111.536 102.718C111.13 102.957 111.198 104.59 111.559 105.34C111.825 105.897 113.228 106.543 113.595 106.313C115.638 105.024 118.273 104.092 117.609 99.9823Z" fill="#000C24"/>
<path d="M-10.8326 189.338C-9.30463 191.379 -10.3683 192.672 -12.2577 193.404C-14.8026 194.339 -17.4241 195.142 -20.0167 195.986C-26.1094 197.957 -32.2054 199.924 -38.3046 201.888C-38.5771 201.982 -38.9244 201.873 -39.4785 201.248L-15.5892 190.697L-15.7606 189.972L-20.2391 189.857L-20.3349 189.304C-16.5314 188.051 -12.7643 186.657 -8.90725 185.656C-7.96061 185.41 -6.68833 186.503 -5.54849 186.913C-4.95126 187.213 -4.28552 187.351 -3.61814 187.313C1.02147 186.222 5.65264 185.07 9.23361 181.58C9.46831 181.351 9.75369 181.18 10.0667 181.081C14.2401 179.838 18.4406 178.705 22.5755 177.401C25.5298 176.51 28.4112 175.394 31.1943 174.061C31.7316 173.785 31.4632 171.777 31.4441 170.575C31.4644 169.785 30.8193 168.808 31.1137 168.256C32.1632 166.342 33.119 164.185 34.7245 162.825C37.68 160.32 36.2932 158.623 34.6305 157.15L35.1213 152.85L34.3457 152.67C36.8961 149.964 39.6327 147.413 41.8887 144.489C42.6741 143.509 42.2844 141.548 42.3768 140.68C44.0918 138.563 45.5852 136.51 47.3033 134.663C49.7517 132.034 53.1754 131.933 56.3829 131.685C58.1784 131.684 59.971 131.827 61.7436 132.113C62.0419 132.1 62.3389 132.159 62.6095 132.285C65.4371 134.359 68.2446 136.433 71.0122 138.505C68.3535 139.587 68.5236 141.143 71.1446 143.081C72.2146 143.869 72.7674 145.324 73.6913 146.349C75.6369 148.49 80.0311 148.773 82.7808 147.653C84.2063 147.07 86.1125 147.629 87.9019 147.675L86.8684 142.746C89.1765 144.016 90.9215 144.621 92.2025 145.765C94.7642 148.062 94.737 151.063 94.3819 154.366C93.8919 159.026 94.3102 163.759 97.5426 167.595C98.2708 168.454 99.6534 168.76 100.285 169.096C98.9192 172.138 97.7236 175.254 96.7036 178.429C96.0174 180.993 97.3089 182.897 100.034 183.888C101.59 184.458 102.898 185.733 104.314 186.69L103.812 187.928C101.438 187.656 99.0676 187.245 96.6892 187.154C95.5425 187.274 94.4179 187.551 93.3469 187.978C93.7861 189.18 93.8961 190.734 94.7261 191.526C97.6548 194.333 101.123 196.383 102.134 201.012C102.654 203.367 105.387 205.228 107.221 207.436C105.521 210.535 106.555 213.113 108.939 215.685C113.154 220.226 117.112 224.991 121.163 229.688C121.41 230.151 121.589 230.648 121.695 231.163C118.556 232.252 117.412 230.052 115.948 228.243C110.745 221.705 105.593 215.109 100.103 208.824C98.3648 206.778 95.6741 205.608 93.3304 204.167C92.9267 203.917 92.1351 204.357 91.5138 204.401C90.3711 204.491 88.9171 205.014 88.12 204.503C84.4876 202.218 81.7021 204.338 79.767 205.289L76.645 212.322C76.0526 211.095 75.3745 209.91 74.6155 208.778C74.0053 208.002 73.0842 206.868 72.3826 206.92C71.2724 207.171 70.2838 207.799 69.5859 208.699C68.9824 209.485 68.6117 210.426 68.5157 211.413C68.1102 214.734 66.4999 214.723 64.0134 213.388C62.7872 212.771 61.3709 212.649 60.0573 213.047C58.7437 213.446 57.6334 214.334 56.956 215.528C56.3185 216.592 54.7539 218.303 54.4382 218.134C52.8002 217.284 51.3367 216.133 50.124 214.741C48.5838 212.765 47.1508 210.707 45.8312 208.577L43.4102 213.248C42.9125 212.374 42.6045 211.906 42.3672 211.41C41.6762 209.881 40.9609 208.912 39.2885 210.54C37.7701 212.012 36.1676 212.091 35.7403 209.648C35.1121 206.07 34.7657 202.429 34.3787 198.807C34.3362 197.807 34.362 196.804 34.4559 195.807C34.0123 195.556 33.8177 195.341 33.647 195.366C27.1316 196.269 26.7416 195.489 28.859 189.009C29.5646 186.856 29.4767 183.662 28.3222 181.882C26.8598 179.623 24.1293 178.442 20.8228 179.817C14.513 182.447 8.11772 184.903 1.63221 186.978C-2.21792 188.099 -6.3794 188.492 -10.8326 189.338Z" fill="#000C24"/>
<path d="M-9.24724 81.8674C-13.3963 78.2786 -14.2934 78.1555 -17.1389 80.6637L-17.4257 78.2049L-23.6714 71.3502C-20.6555 68.8264 -22.5346 66.0464 -24.1954 63.3322C-23.1762 62.0674 -22.0481 60.8945 -20.8241 59.8269C-19.1443 58.6243 -17.1355 57.9674 -15.0699 57.9454C-13.0043 57.9234 -10.982 58.5374 -9.27706 59.704C-7.44701 60.8918 -6.07523 61.6175 -3.80578 59.7248C-1.20924 57.5604 2.28075 56.4395 5.32428 54.7869C9.16938 52.6947 12.7188 54.3169 15.2793 56.6642C16.8914 58.1565 16.8062 61.4662 17.7297 64.8419C21.4295 67.2284 27.9521 66.0456 30.0624 61.7875C30.2417 65.7043 36.3164 67.5417 43.6562 65.6995C42.4231 68.1392 42.0778 70.2816 45.1406 71.381C45.4579 71.4892 45.5373 72.2917 45.6948 72.7761C46.4414 75.3652 47.3413 77.9075 48.3899 80.3897C47.9071 81.658 45.7612 83.0236 48.0775 83.9738L45.0267 92.1299C40.9589 91.6049 42.632 96.1706 40.5038 98.0169C36.3715 98.0506 35.0183 98.9363 34.0744 102.574L31.8386 100.826L31.4616 103.818C28.9963 103.214 26.5023 102.169 24.0728 102.116C20.8668 102.051 17.7013 101.386 14.7402 100.155C13.1362 99.5953 11.7587 98.527 10.8172 97.1125C9.60215 95.3502 8.38375 96.0492 7.4475 97.4459C6.24131 99.2259 5.16303 101.089 3.81842 102.806C4.17462 98.6824 8.93971 96.2136 8.11714 91.2496C6.67145 91.4525 5.44669 91.6211 4.43265 91.7651C5.49253 89.4511 6.79285 87.1232 7.61693 84.643C8.34075 82.5604 5.55219 80.1373 3.18473 80.3965C1.74032 80.5494 0.00504959 79.9544 -1.14079 80.5553C-3.9172 81.9346 -7.14317 77.8493 -9.24724 81.8674Z" fill="#000C24"/>
<path d="M118.102 39.2102C114.084 39.8572 112.255 41.7412 113.69 44.3095C111.928 43.944 110.011 43.0541 108.283 43.3198C106.747 43.5604 105.407 45.0868 104.429 45.7521C99.4568 44.6235 94.7118 43.5908 89.997 42.5489L85.7629 36.4364C86.7199 34.2298 85.8091 30.7543 84.5142 30.1507L85.0688 22.5906L84.0743 22.3649L86.5435 22.0383C87.133 17.4008 91.3164 16.1577 93.2613 14.4368C96.5526 14.0412 98.8859 13.9412 101.139 13.4589C103.694 12.9044 107.548 15.1548 109.349 16.672C113.097 19.9103 113.643 26.278 119.758 26.9458C118.74 27.64 117.408 28.1059 117.239 28.832C117.07 29.5581 118.124 30.5758 118.51 31.5163C118.915 32.2841 119.132 33.1364 119.146 34.0041C118.888 35.7562 118.539 37.4939 118.102 39.2102Z" fill="#000C24"/>
<path d="M60.1137 114.601C58.7728 116.777 57.2786 118.856 55.6423 120.82C54.3259 122.216 52.4044 123.027 50.7561 124.106C49.3408 125.07 47.6039 125.705 46.6002 127C45.1744 128.765 44.2144 129.14 42.8305 126.553C42.3814 129.623 40.4887 129.314 38.7688 128.9C36.78 128.438 36.0627 127.159 36.1877 125.021C36.4435 120.525 35.6407 119.844 31.6153 120.391C32.9512 116.683 31.8683 113.283 30.8789 110.136C32.9361 107.938 35.1813 105.434 37.6005 103.165C38.4208 102.386 39.8342 102.272 40.8793 101.699C45.517 99.1266 50.0801 99.4542 54.0612 102.959C55.2938 104.041 57.0469 103.556 58.2363 105.538C59.5108 107.712 61.6553 109.118 60.4777 112.119C60.1888 112.852 60.7713 113.928 60.9578 114.843L60.1137 114.601Z" fill="#000C24"/>
<path d="M83.9872 83.2775C82.4753 81.7777 80.764 79.8626 78.8256 78.2218C76.1923 75.9827 76.2267 72.7017 79.1094 69.5241C81.2915 67.1389 84.2517 66.0044 87.0681 66.9574C89.6069 67.8133 92.3567 69.0247 93.012 72.7137C94.0008 78.2123 92.7311 80.1307 87.0111 80.8339C85.8069 80.983 84.7642 82.6271 83.9872 83.2775Z" fill="#000C24"/>
<path d="M90.6225 49.349C90.4702 52.1566 88.2715 54.4113 85.7833 54.3073C83.2952 54.2032 80.5089 51.2998 80.5607 48.8998C80.6125 46.4997 83.9617 43.074 86.0684 43.2283C87.9242 43.4161 90.6791 47.1492 90.6225 49.349Z" fill="#000C24"/>
<path d="M142.719 10.5272C141.42 9.92943 140.158 9.25547 138.939 8.50885C137.839 7.72009 136.38 6.88208 136.009 5.75188C135.638 4.62169 135.86 2.22602 136.662 1.7664C137.973 0.94968 140.748 0.420774 141.499 1.17053C143.041 2.92859 144.087 5.06561 144.531 7.36207C144.767 8.26868 143.272 9.62097 142.719 10.5272Z" fill="#000C24"/>
<path d="M193.632 122.591C191.787 116.541 192.627 111.879 196.076 109.647C198.215 112.424 197.115 118.259 193.632 122.591Z" fill="#000C24"/>
<path d="M7.70595 194.298C6.17717 197.34 1.41981 199.509 -3.28657 199.308C0.667169 197.659 2.49933 192.933 7.70595 194.298Z" fill="#000C24"/>
<path d="M191.817 136.763L183.457 132.365L183.545 132.077L189.85 133.891L192.28 127.72L193.095 127.921L191.817 136.763Z" fill="#000C24"/>
<path d="M180.385 102.509C180.925 100.656 181.596 98.8446 182.395 97.0877C182.657 96.5942 184.035 96.6897 184.89 96.5116C184.96 97.3038 185.345 98.2843 185.02 98.8463C184.025 100.382 182.945 101.861 181.785 103.276L180.385 102.509Z" fill="#000C24"/>
<path d="M82.0709 109.543L82.4453 94.9946L83.9632 95.0938L82.929 109.625L82.0709 109.543Z" fill="#000C24"/>
<path d="M183.089 175.04L184.265 165.895C187.792 169.538 185.101 172.29 183.864 175.26L183.089 175.04Z" fill="#000C24"/>
<path d="M10.3063 191.984C12.228 190.773 14.0356 188.949 16.7416 191.469L10.4951 192.809L10.3063 191.984Z" fill="#000C24"/>
<path d="M139.788 204.063L141.549 216.115L140.346 216.234L139.788 204.063Z" fill="#000C24"/>
<path d="M141.448 30.3558C143.305 29.333 143.945 26.2277 146.788 26.9213L147.392 27.9374C145.576 28.9513 143.749 29.9648 141.932 30.9886L141.448 30.3558Z" fill="#000C24"/>
</svg>
