<svg width="37" height="37" viewBox="0 0 37 37" fill="none" xmlns="http://www.w3.org/2000/svg">
<g clip-path="url(#clip0_454_26)">
<path d="M14.4655 16.8211C14.8153 16.5677 14.9842 16.1495 14.9842 15.5745C14.9963 15.3011 14.94 15.0316 14.8194 14.7863C14.7108 14.5893 14.5499 14.4244 14.3529 14.3078C14.1486 14.1839 13.9217 14.1019 13.6854 14.0665C13.428 14.0183 13.1666 13.9942 12.9093 13.9982H10.0824V17.2031H13.1425C13.6693 17.2071 14.1156 17.0784 14.4655 16.8211V16.8211ZM14.94 19.7163C14.5459 19.4147 14.0191 19.266 13.3637 19.266H10.0743V23.0459H13.2993C13.6009 23.0459 13.8784 23.0177 14.1478 22.9614C14.4027 22.9116 14.6457 22.8133 14.8636 22.6719C15.0687 22.5392 15.2335 22.3583 15.3582 22.125C15.4788 21.8918 15.5392 21.5942 15.5392 21.2364C15.5392 20.5246 15.3381 20.0219 14.94 19.7163V19.7163ZM18.1529 0.48291C8.20448 0.48291 0.137939 8.54945 0.137939 18.4979C0.137939 28.4464 8.20448 36.5129 18.1529 36.5129C28.1014 36.5129 36.1679 28.4464 36.1679 18.4979C36.1679 8.54945 28.1014 0.48291 18.1529 0.48291ZM21.6313 12.0197H27.1966V13.3749H21.6313V12.0197ZM18.1529 23.1947C17.8926 23.6888 17.5209 24.1156 17.0672 24.4413C16.5927 24.771 16.0659 25.0123 15.507 25.153C14.9222 25.3097 14.3189 25.3868 13.7135 25.3822H7.05441V11.6659H13.5286C14.184 11.6659 14.7791 11.7262 15.322 11.8388C15.8609 11.9514 16.3193 12.1444 16.7053 12.4058C17.0873 12.6672 17.3889 13.017 17.602 13.4513C17.8111 13.8816 17.9197 14.4204 17.9197 15.0598C17.9197 15.7514 17.7629 16.3224 17.4492 16.7849C17.1316 17.2473 16.6731 17.6213 16.0498 17.9148C16.8983 18.1561 17.5216 18.5864 17.9318 19.1896C18.35 19.8008 18.5551 20.5326 18.5551 21.3932C18.5551 22.0929 18.4224 22.692 18.1529 23.1947ZM29.3641 21.0715H22.1902C22.1902 21.8516 22.4597 22.5995 22.8658 23.0017C23.276 23.3998 23.8631 23.6008 24.6311 23.6008C25.186 23.6008 25.6565 23.4601 26.0586 23.1826C26.4567 22.9052 26.698 22.6116 26.7865 22.306H29.1911C28.8051 23.5003 28.218 24.3528 27.4218 24.8675C26.6337 25.3822 25.6686 25.6396 24.5467 25.6396C23.7625 25.6396 23.0588 25.5109 22.4275 25.2656C21.8203 25.0283 21.2734 24.6664 20.823 24.2C20.379 23.7209 20.0357 23.1575 19.8137 22.5432C19.5684 21.8637 19.4478 21.1479 19.4558 20.4281C19.4558 19.6842 19.5805 18.9925 19.8217 18.3491C20.2842 17.0985 21.2452 16.0973 22.4717 15.5785C23.1272 15.3051 23.8309 15.1684 24.5426 15.1764C25.3871 15.1764 26.1189 15.3372 26.7543 15.667C27.3659 15.9819 27.897 16.4331 28.3065 16.9859C28.7126 17.5368 28.9981 18.1641 29.1791 18.8719C29.352 19.5676 29.4123 20.2994 29.3641 21.0715V21.0715ZM24.4582 17.2272C24.0239 17.2272 23.658 17.3036 23.3765 17.4524C23.095 17.6012 22.8618 17.7862 22.6848 17.9993C22.5163 18.2051 22.3918 18.4432 22.3189 18.699C22.2546 18.9121 22.2103 19.1292 22.1943 19.3504H26.6377C26.5733 18.6547 26.3321 18.14 26.0104 17.7781C25.6726 17.4202 25.1297 17.2272 24.4582 17.2272V17.2272Z" fill="#928A97"/>
</g>
<defs>
<clipPath id="clip0_454_26">
<rect width="36.03" height="36.03" fill="white" transform="translate(0.137939 0.48291)"/>
</clipPath>
</defs>
</svg>
