<svg width="37" height="37" viewBox="0 0 37 37" fill="none" xmlns="http://www.w3.org/2000/svg">
<path fill-rule="evenodd" clip-rule="evenodd" d="M18.0516 35.3915C27.3803 35.3915 34.9427 27.829 34.9427 18.5003C34.9427 9.17156 27.3803 1.60913 18.0516 1.60913C8.72283 1.60913 1.1604 9.17156 1.1604 18.5003C1.1604 27.829 8.72283 35.3915 18.0516 35.3915ZM13.5366 32.9299C14.9624 33.3755 16.4789 33.6157 18.0516 33.6157C19.6138 33.6157 21.1207 33.3787 22.5382 32.9387V29.2437C22.5386 28.6476 22.4203 28.0575 22.1901 27.5076C21.9599 26.9578 21.6224 26.4594 21.1974 26.0414C26.1592 25.1687 28.2354 22.1459 28.2354 18.5495C28.2354 16.8041 27.6548 15.1889 26.5146 13.8939C27.1588 11.8909 26.4915 10.1791 26.3395 9.78905C26.3321 9.76998 26.3258 9.75408 26.3211 9.74145C24.4208 9.56902 22.4502 10.9837 22.0526 11.2863C20.8807 10.9696 19.5506 10.7971 18.0585 10.7971C16.5735 10.7971 15.2468 10.9625 14.0856 11.2757C13.9202 11.1455 11.7947 9.49864 9.75016 9.68163C9.7463 9.69153 9.74153 9.70351 9.73597 9.7175C9.58923 10.0863 8.8861 11.8533 9.57773 13.9044C8.45165 15.1959 7.87806 16.797 7.87806 18.5389C7.87806 22.1283 9.94019 25.1476 14.8879 26.0344C14.2967 26.608 13.8674 27.347 13.6668 28.1739C12.7483 28.4027 10.9361 28.6349 10.007 27.259C8.72261 25.3623 7.61413 24.662 6.52676 25.2215C6.28538 25.5 6.59755 25.71 7.04144 26.0085C7.4388 26.2757 7.94171 26.6139 8.24755 27.1358C8.29442 27.2131 8.33858 27.3467 8.39479 27.5169C8.7226 28.5091 9.46028 30.7418 13.5366 30.2642V32.9299Z" fill="#928A97"/>
</svg>
