<svg width="37" height="37" viewBox="0 0 37 37" fill="none" xmlns="http://www.w3.org/2000/svg">
<g clip-path="url(#clip0_50_2563)">
<path d="M18.0862 1.20386C8.53348 1.20386 0.789673 8.94767 0.789673 18.5004C0.789673 28.0532 8.53348 35.797 18.0862 35.797C27.639 35.797 35.3828 28.0532 35.3828 18.5004C35.3828 8.94767 27.639 1.20386 18.0862 1.20386ZM13.8522 25.6695H10.3496V14.3979H13.8522V25.6695ZM12.0793 13.0142C10.973 13.0142 10.2577 12.2304 10.2577 11.2611C10.2577 10.2719 10.9946 9.51161 12.1243 9.51161C13.254 9.51161 13.9459 10.2719 13.9675 11.2611C13.9675 12.2304 13.254 13.0142 12.0793 13.0142ZM26.6444 25.6695H23.1419V19.4229C23.1419 17.9689 22.6338 16.9816 21.3672 16.9816C20.3996 16.9816 19.8249 17.65 19.5708 18.2932C19.4772 18.522 19.4537 18.8463 19.4537 19.1688V25.6677H15.9494V17.9923C15.9494 16.5852 15.9043 15.4087 15.8575 14.3961H18.9006L19.061 15.9618H19.1312C19.5925 15.2267 20.7222 14.142 22.6122 14.142C24.9166 14.142 26.6444 15.6861 26.6444 19.0049V25.6695Z" fill="#928A97"/>
</g>
<defs>
<clipPath id="clip0_50_2563">
<rect width="36.0345" height="36.0345" fill="white" transform="translate(0.0689697 0.48291)"/>
</clipPath>
</defs>
</svg>
