<svg width="37" height="37" viewBox="0 0 37 37" fill="none" xmlns="http://www.w3.org/2000/svg">
<path fill-rule="evenodd" clip-rule="evenodd" d="M18.0171 35.3912C27.3459 35.3912 34.9083 27.8288 34.9083 18.5C34.9083 9.17132 27.3459 1.60889 18.0171 1.60889C8.68841 1.60889 1.12598 9.17132 1.12598 18.5C1.12598 27.8288 8.68841 35.3912 18.0171 35.3912ZM25.604 15.1252C25.604 14.9563 25.604 14.7839 25.5934 14.6185C26.357 14.066 27.0221 13.3728 27.5535 12.5916C26.8497 12.8977 26.0896 13.1159 25.3014 13.2003C26.1142 12.7182 26.7265 11.9546 27.0186 11.0502C26.2656 11.4936 25.421 11.8244 24.5377 11.9898C23.8234 11.2297 22.8099 10.7582 21.6838 10.7582C19.298 10.7582 17.3132 12.9083 17.8657 15.5651C16.3111 15.4875 14.7901 15.0837 13.4018 14.3798C12.0134 13.6759 10.7887 12.6878 9.80723 11.4796C9.46589 12.0567 9.27586 12.7218 9.27586 13.4502C9.2763 14.0937 9.4355 14.7271 9.73935 15.2943C10.0432 15.8614 10.4823 16.3449 11.0178 16.7017C10.3808 16.6771 9.77204 16.4976 9.25475 16.2056V16.2548C9.25294 17.1571 9.56357 18.0322 10.1338 18.7314C10.7041 19.4307 11.4989 19.9109 12.3831 20.0905C11.7638 20.2489 11.2219 20.2489 10.6201 20.1609C11.1128 21.7093 12.5556 22.8353 14.2728 22.8705C12.9321 23.9192 11.25 24.5385 9.42014 24.5385C9.09639 24.5385 8.79376 24.5245 8.47705 24.4893C10.2084 25.5978 12.2635 26.2417 14.4805 26.2417C21.6698 26.2417 25.604 20.2911 25.604 15.1252Z" fill="#928A97"/>
</svg>
